<svg width="180" height="192" viewBox="0 0 180 192" fill="none" xmlns="http://www.w3.org/2000/svg">
<path fill-rule="evenodd" clip-rule="evenodd" d="M149.26 21.6944C151.986 23.9292 154.552 26.286 156.967 28.7465C154.862 27.0176 152.683 25.4725 150.428 24.1076C143.771 20.0802 136.585 17.6924 128.866 16.9445C121.147 16.1983 113.16 17.2885 104.905 20.2148C96.6505 23.1431 90.1615 27.0904 85.4369 32.0569C80.713 37.0252 77.1536 42.5467 74.7592 48.6234C72.3649 54.7 70.8721 61.1351 70.2799 67.927C69.6884 74.7206 69.3976 81.4051 69.4083 87.984C69.6948 102.984 68.8788 113.922 66.9615 120.797C65.0442 127.673 61.1619 132.148 55.3149 134.222C52.5636 135.197 49.9177 135.652 47.3769 135.585C44.8362 135.518 42.3524 134.656 39.9254 133.001C37.4991 131.344 35.1567 128.835 32.8997 125.474C30.6424 122.112 28.507 117.593 26.4944 111.918C22.4686 100.567 20.2287 90.5682 19.775 81.9201C19.3214 73.272 19.6108 65.7649 20.6438 59.3953C14.5755 53.7846 7.65647 54.0484 0 59.3935C3.52404 50.809 8.36223 42.5941 14.5513 35.0452C48.0637 -5.84239 108.374 -11.8189 149.26 21.6944ZM180 124.156C176.446 135.599 170.675 146.565 162.609 156.403C132.422 193.232 80.4911 201.729 40.6 178.558C49.6845 180.428 59.4139 179.524 69.788 175.844C78.3862 172.794 85.2989 169.084 90.5247 164.714C95.7506 160.343 99.7913 155.086 102.646 148.943C105.501 142.8 107.385 135.694 108.299 127.626C109.212 119.558 109.742 110.271 109.887 99.7642C109.849 94.7431 109.905 90.126 110.055 85.9093C110.206 81.6945 110.681 77.8472 111.48 74.3694C112.279 70.8916 113.522 67.9816 115.208 65.6412C116.896 63.299 119.372 61.5501 122.639 60.3908C128.143 58.4399 132.974 59.0968 137.134 62.3654C141.294 65.6339 145.082 72.0818 148.498 81.7126C151.548 90.3098 153.167 98.0132 153.355 104.82C153.542 111.626 153.231 117.981 152.419 123.883C160.813 133.035 170.238 130.504 180 124.156Z" fill="#FF00FF"/>
<path d="M20.6438 59.3955C55.2843 2.27089 111.171 -8.63026 156.793 28.6029C156.851 28.6521 156.909 28.6994 156.967 28.7467C154.552 26.2862 151.986 23.9295 149.26 21.6946C108.374 -11.8187 48.0637 -5.84218 14.5513 35.0454C8.36223 42.5943 3.52404 50.8093 0 59.3937C7.24754 54.3544 14.1859 53.57 20.6438 59.3955Z" fill="url(#paint0_linear_3_693)"/>
<path d="M152.42 123.883C139.824 175.322 99.7964 188.706 43.1301 179.006C42.2813 178.88 41.4383 178.731 40.6001 178.558C80.4912 201.729 132.422 193.232 162.609 156.403C170.675 146.565 176.446 135.599 180 124.156C169.239 129.867 159.841 130.535 152.42 123.883Z" fill="url(#paint1_linear_3_693)"/>
<path d="M113.261 69.0173C163.457 109.548 124.387 181.648 53.2994 179.395C49.8267 179.623 46.4364 179.493 43.13 179.006C99.7964 188.706 139.824 175.322 152.419 123.884C153.231 117.981 153.542 111.626 153.355 104.82C153.167 98.0134 151.548 90.31 148.498 81.7128C145.082 72.082 140.916 65.4121 137.134 62.3656C132.225 58.4109 119.634 55.8067 113.261 69.0173Z" fill="url(#paint2_linear_3_693)"/>
<path d="M64.3767 126.893C20.328 57.0585 67.6887 -13.0765 139.027 18.97C142.987 20.1911 146.787 21.9037 150.429 24.1076C152.62 25.4342 154.742 26.932 156.793 28.6027C111.171 -8.63049 55.2843 2.27066 20.6438 59.3953C19.6108 65.7649 19.3214 73.272 19.775 81.9201C20.2287 90.5682 22.4686 100.567 26.4944 111.918C28.507 117.593 30.8423 121.985 32.8997 125.474C34.6626 128.462 36.9957 130.977 39.9254 133.001C41.9536 134.554 44.3983 135.475 47.3769 135.585C52.1236 135.551 59.9684 134.702 64.3767 126.893Z" fill="url(#paint3_linear_3_693)"/>
<defs>
<linearGradient id="paint0_linear_3_693" x1="129.463" y1="1.16072" x2="-29.0811" y2="52.9714" gradientUnits="userSpaceOnUse">
<stop stop-color="#FF00FF"/>
<stop offset="1" stop-color="#4079FF"/>
</linearGradient>
<linearGradient id="paint1_linear_3_693" x1="199.076" y1="107.357" x2="66.9082" y2="207.447" gradientUnits="userSpaceOnUse">
<stop stop-color="#4079FF"/>
<stop offset="1" stop-color="#FF00FF"/>
</linearGradient>
<linearGradient id="paint2_linear_3_693" x1="178.846" y1="167.164" x2="78.277" y2="116.245" gradientUnits="userSpaceOnUse">
<stop stop-color="#4079FF"/>
<stop offset="1" stop-color="#FF00FF"/>
</linearGradient>
<linearGradient id="paint3_linear_3_693" x1="6.44097" y1="34.1134" x2="95.5187" y2="89.5909" gradientUnits="userSpaceOnUse">
<stop stop-color="#4079FF"/>
<stop offset="1" stop-color="#FF00FF"/>
</linearGradient>
</defs>
</svg>
