<svg width="397" height="137" viewBox="0 0 397 137" fill="none" xmlns="http://www.w3.org/2000/svg">
<path fill-rule="evenodd" clip-rule="evenodd" d="M84.9223 13.0525C86.4369 14.2941 87.8624 15.6034 89.2041 16.9704C88.0343 16.0099 86.8241 15.1515 85.5714 14.3932C81.873 12.1557 77.8803 10.8292 73.592 10.4137C69.3037 9.99914 64.8665 10.6048 60.2805 12.2305C55.6947 13.8573 52.0897 16.0503 49.4649 18.8095C46.8405 21.5696 44.8631 24.6372 43.5329 28.0131C42.2027 31.389 41.3734 34.964 41.0444 38.7373C40.7158 42.5115 40.5542 46.2251 40.5602 49.8801C40.7193 58.2134 40.266 64.2903 39.2008 68.1097C38.1357 71.9293 35.9788 74.4155 32.7305 75.5679C31.202 76.1097 29.732 76.362 28.3205 76.3253C26.909 76.2878 25.5291 75.8092 24.1808 74.8894C22.8328 73.9691 21.5315 72.5754 20.2776 70.7077C19.0236 68.84 17.8372 66.3294 16.7191 63.1765C14.4825 56.8709 13.2381 51.3158 12.9861 46.5113C12.7341 41.7067 12.8949 37.5361 13.4688 33.9975C10.0975 30.8804 6.25359 31.027 2 33.9965C3.9578 29.2273 6.64568 24.6634 10.0841 20.4696C28.7021 -2.24569 62.2077 -5.56599 84.9223 13.0525V13.0525ZM102 69.9754C100.025 76.3328 96.8193 82.4248 92.3384 87.8905C75.5679 108.351 46.7173 113.072 24.5555 100.199C29.6025 101.238 35.0077 100.736 40.7711 98.6913C45.5479 96.997 49.3883 94.9358 52.2915 92.5077C55.1948 90.0796 57.4396 87.1591 59.0257 83.7464C60.6118 80.3333 61.6584 76.3858 62.1659 71.9032C62.6734 67.421 62.9676 62.2615 63.0486 56.4246C63.0273 53.6351 63.0584 51.0701 63.1418 48.7275C63.2255 46.3859 63.4893 44.2485 63.9333 42.3164C64.3771 40.3843 65.0679 38.7676 66.0047 37.4674C66.942 36.1662 68.3179 35.1946 70.133 34.5505C73.1907 33.4667 75.8747 33.8317 78.1857 35.6475C80.4969 37.4634 82.6009 41.0455 84.4987 46.396C86.1932 51.1722 87.093 55.4519 87.1972 59.2334C87.3013 63.0146 87.1284 66.545 86.6775 69.8242C91.3405 74.9084 96.5767 73.5023 102 69.9754Z" stroke="url(#paint0_linear_7_264)" stroke-width="1.5"/>
<path d="M13.4688 33.9976C32.7135 2.26166 63.7615 -3.79453 89.107 16.8906C89.1394 16.9179 89.1718 16.9442 89.2041 16.9704C87.8624 15.6035 86.4369 14.2942 84.9223 13.0526C62.2077 -5.56589 28.7021 -2.2456 10.0841 20.4697C6.64568 24.6635 3.9578 29.2274 2 33.9965C6.02641 31.1969 9.88104 30.7612 13.4688 33.9976" stroke="url(#paint1_linear_7_264)" stroke-width="1.5"/>
<path d="M86.6775 69.8242C79.6801 98.401 57.4425 105.837 25.9612 100.448C25.4896 100.378 25.0213 100.295 24.5556 100.199C46.7173 113.072 75.5679 108.351 92.3384 87.8905C96.8194 82.4248 100.025 76.3328 102 69.9754C96.0217 73.1484 90.8006 73.5193 86.6775 69.8242Z" stroke="url(#paint2_linear_7_264)" stroke-width="1.5"/>
<path d="M64.9226 39.343C92.8095 61.8603 71.1039 101.915 31.6108 100.664C29.6815 100.791 27.798 100.719 25.9611 100.448C57.4424 105.837 79.68 98.4012 86.6775 69.8243C87.1284 66.5452 87.3013 63.0148 87.1972 59.2335C87.093 55.452 86.1932 51.1723 84.4987 46.3961C82.6009 41.0456 80.2866 37.3401 78.1857 35.6476C75.4585 33.4506 68.4636 32.0038 64.9226 39.343" stroke="url(#paint3_linear_7_264)" stroke-width="1.5"/>
<path d="M37.7648 71.4962C13.2933 32.6991 39.6048 -6.26477 79.2371 11.5388C81.4372 12.2172 83.5483 13.1686 85.5714 14.393C86.7887 15.1301 87.9676 15.9622 89.107 16.8903C63.7615 -3.79477 32.7135 2.26142 13.4688 33.9973C12.8949 37.536 12.7341 41.7066 12.9861 46.5111C13.2381 51.3156 14.4825 56.8707 16.7191 63.1764C17.8372 66.3292 19.1346 68.7696 20.2776 70.7076C21.257 72.3675 22.5532 73.7652 24.1807 74.8892C25.3076 75.7521 26.6657 76.264 28.3205 76.3252C30.9575 76.3063 35.3158 75.8343 37.7648 71.4962" stroke="url(#paint4_linear_7_264)" stroke-width="1.5"/>
<mask id="path-6-outside-1_7_264" maskUnits="userSpaceOnUse" x="110.833" y="14" width="287" height="88" fill="black">
<rect fill="white" x="110.833" y="14" width="287" height="88"/>
<path d="M146.13 100.167C140.776 100.167 135.891 99.1979 131.475 97.2604C127.098 95.3228 123.307 92.5521 120.102 88.9483C116.937 85.3057 114.514 80.9463 112.833 75.8699L129.365 69.7086C131.201 73.5449 133.624 76.7031 136.634 79.1831C139.643 81.6244 142.965 82.8451 146.599 82.8451C150.234 82.8451 153.145 82.1863 155.334 80.8688C157.562 79.5125 158.675 77.5362 158.675 74.9399C158.675 73.2349 158.031 71.8205 156.741 70.6967C155.49 69.5729 153.712 68.5848 151.406 67.7323C149.14 66.841 146.482 65.911 143.434 64.9422C140.346 63.9347 137.2 62.8303 133.996 61.629C130.791 60.4278 127.84 58.9165 125.144 57.0952C122.486 55.2351 120.337 52.8714 118.695 50.0038C117.054 47.1362 116.233 43.5518 116.233 39.2505C116.233 35.0266 117.367 31.1515 119.633 27.6252C121.9 24.0989 125.183 21.2895 129.482 19.1969C133.82 17.0656 139.057 16 145.192 16C150.273 16 154.787 16.93 158.734 18.7901C162.681 20.6113 165.944 23.0914 168.524 26.2302C171.142 29.369 172.979 32.8953 174.034 36.8092L157.62 42.1568C156.448 39.638 154.845 37.5454 152.813 35.8791C150.82 34.1741 147.967 33.3216 144.254 33.3216C141.167 33.3216 138.783 33.8641 137.103 34.9491C135.461 35.9954 134.641 37.5454 134.641 39.5992C134.641 40.8392 135.207 41.9243 136.341 42.8543C137.474 43.7455 139.057 44.5787 141.089 45.3537C143.121 46.1287 145.505 46.9619 148.241 47.8531C151.719 48.9769 155.158 50.2169 158.558 51.5732C161.997 52.9295 165.104 54.5958 167.879 56.5721C170.693 58.5483 172.92 61.0284 174.562 64.0122C176.242 66.996 177.083 70.6773 177.083 75.0562C177.083 80.365 175.695 84.8989 172.92 88.6577C170.185 92.3778 166.472 95.2259 161.782 97.2022C157.132 99.1785 151.914 100.167 146.13 100.167Z"/>
<path d="M180.605 98.7716V17.395H197.371L227.034 58.6646C227.385 59.1684 227.952 60.079 228.734 61.3965C229.515 62.714 230.082 63.8184 230.434 64.7097C230.316 63.9347 230.219 62.8691 230.141 61.5128C230.102 60.1177 230.082 59.1296 230.082 58.5483V17.395H248.489V98.7716H232.427L202.061 57.1533C201.67 56.6108 201.084 55.6614 200.302 54.3051C199.56 52.9489 198.973 51.8057 198.544 50.8757C198.739 51.922 198.837 53.0457 198.837 54.247C198.876 55.4095 198.895 56.3783 198.895 57.1533V98.7716H180.605Z"/>
<path d="M289.01 100.167C282.678 100.167 277.207 99.0041 272.595 96.6791C268.023 94.3153 264.271 91.1377 261.34 87.1464C258.409 83.1163 256.22 78.6019 254.774 73.603C253.368 68.5654 252.664 63.3922 252.664 58.0833C252.664 53.162 253.387 48.2406 254.833 43.3193C256.279 38.3592 258.487 33.8254 261.457 29.7178C264.428 25.5714 268.199 22.2582 272.771 19.7782C277.344 17.2594 282.757 16 289.01 16C294.364 16 298.936 16.9106 302.727 18.7319C306.518 20.5532 309.742 22.917 312.4 25.8233C315.096 28.6909 317.461 31.7328 319.493 34.9491L303.313 44.0168C301.555 41.2267 299.503 38.7854 297.158 36.6929C294.852 34.6004 292.136 33.5541 289.01 33.5541C285.727 33.5541 282.971 34.3291 280.744 35.8791C278.555 37.3904 276.816 39.3667 275.527 41.808C274.237 44.2493 273.299 46.9037 272.713 49.7713C272.166 52.6388 271.892 55.4095 271.892 58.0833C271.892 61.1446 272.205 64.1478 272.83 67.0929C273.455 69.9992 274.432 72.6342 275.761 74.998C277.129 77.3231 278.907 79.1831 281.096 80.5782C283.284 81.9344 285.922 82.6126 289.01 82.6126C291.081 82.6126 293.015 82.1476 294.813 81.2175C296.65 80.2488 298.135 79.0087 299.268 77.4975C300.402 75.9474 300.968 74.2812 300.968 72.4986V72.1499H287.72V54.5958H319.962V67.616C319.962 74.6299 318.594 80.5588 315.858 85.4026C313.123 90.2465 309.41 93.9278 304.72 96.4466C300.069 98.9266 294.833 100.167 289.01 100.167Z"/>
<path d="M324.975 98.7716V17.395H365.658C372.654 17.395 378.203 18.6157 382.307 21.057C386.41 23.4595 389.341 26.6758 391.1 30.7059C392.898 34.736 393.797 39.1342 393.797 43.9005C393.797 46.8844 393.23 49.965 392.096 53.1426C390.963 56.2814 389.302 59.1684 387.114 61.8034C384.964 64.3997 382.346 66.376 379.258 67.7323L394.5 98.7716H373.748L359.093 70.6386H343.499V98.7716H324.975ZM343.499 53.317H365.893C368.081 53.317 369.801 52.8907 371.051 52.0382C372.341 51.1469 373.24 49.9844 373.748 48.5506C374.295 47.1169 374.569 45.5668 374.569 43.9005C374.569 42.3505 374.315 40.878 373.807 39.483C373.298 38.0879 372.4 36.9448 371.11 36.0535C369.859 35.1623 368.12 34.7166 365.893 34.7166H343.499V53.317Z"/>
</mask>
<path d="M146.13 100.167C140.776 100.167 135.891 99.1979 131.475 97.2604C127.098 95.3228 123.307 92.5521 120.102 88.9483C116.937 85.3057 114.514 80.9463 112.833 75.8699L129.365 69.7086C131.201 73.5449 133.624 76.7031 136.634 79.1831C139.643 81.6244 142.965 82.8451 146.599 82.8451C150.234 82.8451 153.145 82.1863 155.334 80.8688C157.562 79.5125 158.675 77.5362 158.675 74.9399C158.675 73.2349 158.031 71.8205 156.741 70.6967C155.49 69.5729 153.712 68.5848 151.406 67.7323C149.14 66.841 146.482 65.911 143.434 64.9422C140.346 63.9347 137.2 62.8303 133.996 61.629C130.791 60.4278 127.84 58.9165 125.144 57.0952C122.486 55.2351 120.337 52.8714 118.695 50.0038C117.054 47.1362 116.233 43.5518 116.233 39.2505C116.233 35.0266 117.367 31.1515 119.633 27.6252C121.9 24.0989 125.183 21.2895 129.482 19.1969C133.82 17.0656 139.057 16 145.192 16C150.273 16 154.787 16.93 158.734 18.7901C162.681 20.6113 165.944 23.0914 168.524 26.2302C171.142 29.369 172.979 32.8953 174.034 36.8092L157.62 42.1568C156.448 39.638 154.845 37.5454 152.813 35.8791C150.82 34.1741 147.967 33.3216 144.254 33.3216C141.167 33.3216 138.783 33.8641 137.103 34.9491C135.461 35.9954 134.641 37.5454 134.641 39.5992C134.641 40.8392 135.207 41.9243 136.341 42.8543C137.474 43.7455 139.057 44.5787 141.089 45.3537C143.121 46.1287 145.505 46.9619 148.241 47.8531C151.719 48.9769 155.158 50.2169 158.558 51.5732C161.997 52.9295 165.104 54.5958 167.879 56.5721C170.693 58.5483 172.92 61.0284 174.562 64.0122C176.242 66.996 177.083 70.6773 177.083 75.0562C177.083 80.365 175.695 84.8989 172.92 88.6577C170.185 92.3778 166.472 95.2259 161.782 97.2022C157.132 99.1785 151.914 100.167 146.13 100.167Z" stroke="url(#paint5_linear_7_264)" stroke-width="3" mask="url(#path-6-outside-1_7_264)"/>
<path d="M180.605 98.7716V17.395H197.371L227.034 58.6646C227.385 59.1684 227.952 60.079 228.734 61.3965C229.515 62.714 230.082 63.8184 230.434 64.7097C230.316 63.9347 230.219 62.8691 230.141 61.5128C230.102 60.1177 230.082 59.1296 230.082 58.5483V17.395H248.489V98.7716H232.427L202.061 57.1533C201.67 56.6108 201.084 55.6614 200.302 54.3051C199.56 52.9489 198.973 51.8057 198.544 50.8757C198.739 51.922 198.837 53.0457 198.837 54.247C198.876 55.4095 198.895 56.3783 198.895 57.1533V98.7716H180.605Z" stroke="url(#paint6_linear_7_264)" stroke-width="3" mask="url(#path-6-outside-1_7_264)"/>
<path d="M289.01 100.167C282.678 100.167 277.207 99.0041 272.595 96.6791C268.023 94.3153 264.271 91.1377 261.34 87.1464C258.409 83.1163 256.22 78.6019 254.774 73.603C253.368 68.5654 252.664 63.3922 252.664 58.0833C252.664 53.162 253.387 48.2406 254.833 43.3193C256.279 38.3592 258.487 33.8254 261.457 29.7178C264.428 25.5714 268.199 22.2582 272.771 19.7782C277.344 17.2594 282.757 16 289.01 16C294.364 16 298.936 16.9106 302.727 18.7319C306.518 20.5532 309.742 22.917 312.4 25.8233C315.096 28.6909 317.461 31.7328 319.493 34.9491L303.313 44.0168C301.555 41.2267 299.503 38.7854 297.158 36.6929C294.852 34.6004 292.136 33.5541 289.01 33.5541C285.727 33.5541 282.971 34.3291 280.744 35.8791C278.555 37.3904 276.816 39.3667 275.527 41.808C274.237 44.2493 273.299 46.9037 272.713 49.7713C272.166 52.6388 271.892 55.4095 271.892 58.0833C271.892 61.1446 272.205 64.1478 272.83 67.0929C273.455 69.9992 274.432 72.6342 275.761 74.998C277.129 77.3231 278.907 79.1831 281.096 80.5782C283.284 81.9344 285.922 82.6126 289.01 82.6126C291.081 82.6126 293.015 82.1476 294.813 81.2175C296.65 80.2488 298.135 79.0087 299.268 77.4975C300.402 75.9474 300.968 74.2812 300.968 72.4986V72.1499H287.72V54.5958H319.962V67.616C319.962 74.6299 318.594 80.5588 315.858 85.4026C313.123 90.2465 309.41 93.9278 304.72 96.4466C300.069 98.9266 294.833 100.167 289.01 100.167Z" stroke="url(#paint7_linear_7_264)" stroke-width="3" mask="url(#path-6-outside-1_7_264)"/>
<path d="M324.975 98.7716V17.395H365.658C372.654 17.395 378.203 18.6157 382.307 21.057C386.41 23.4595 389.341 26.6758 391.1 30.7059C392.898 34.736 393.797 39.1342 393.797 43.9005C393.797 46.8844 393.23 49.965 392.096 53.1426C390.963 56.2814 389.302 59.1684 387.114 61.8034C384.964 64.3997 382.346 66.376 379.258 67.7323L394.5 98.7716H373.748L359.093 70.6386H343.499V98.7716H324.975ZM343.499 53.317H365.893C368.081 53.317 369.801 52.8907 371.051 52.0382C372.341 51.1469 373.24 49.9844 373.748 48.5506C374.295 47.1169 374.569 45.5668 374.569 43.9005C374.569 42.3505 374.315 40.878 373.807 39.483C373.298 38.0879 372.4 36.9448 371.11 36.0535C369.859 35.1623 368.12 34.7166 365.893 34.7166H343.499V53.317Z" stroke="url(#paint8_linear_7_264)" stroke-width="3" mask="url(#path-6-outside-1_7_264)"/>
<mask id="path-7-outside-2_7_264" maskUnits="userSpaceOnUse" x="286.66" y="102.453" width="109" height="34" fill="black">
<rect fill="white" x="286.66" y="102.453" width="109" height="34"/>
<path d="M291.6 134.853C290.773 134.853 290.073 134.567 289.5 133.993C288.94 133.42 288.66 132.74 288.66 131.953C288.66 131.18 288.94 130.5 289.5 129.913C290.073 129.327 290.773 129.033 291.6 129.033C292.44 129.033 293.147 129.327 293.72 129.913C294.293 130.5 294.58 131.18 294.58 131.953C294.58 132.74 294.293 133.42 293.72 133.993C293.147 134.567 292.44 134.853 291.6 134.853Z"/>
<path d="M303.758 134.813C302.264 134.813 300.831 134.493 299.458 133.853C298.098 133.213 296.991 132.353 296.138 131.273L298.898 128.933C299.604 129.693 300.398 130.287 301.278 130.713C302.158 131.127 303.018 131.333 303.858 131.333C305.004 131.333 305.891 131.127 306.518 130.713C307.144 130.287 307.458 129.7 307.458 128.953C307.458 128.473 307.311 128.04 307.018 127.653C306.738 127.253 306.258 126.873 305.578 126.513C304.898 126.14 303.978 125.74 302.818 125.313C300.551 124.473 298.931 123.567 297.958 122.593C296.984 121.607 296.498 120.373 296.498 118.893C296.498 117.267 297.151 115.947 298.458 114.933C299.764 113.92 301.458 113.413 303.538 113.413C304.978 113.413 306.298 113.687 307.498 114.233C308.698 114.767 309.731 115.547 310.598 116.573L307.898 118.793C306.684 117.527 305.218 116.893 303.498 116.893C302.524 116.893 301.751 117.08 301.178 117.453C300.604 117.813 300.318 118.313 300.318 118.953C300.318 119.58 300.644 120.127 301.298 120.593C301.951 121.06 303.144 121.607 304.878 122.233C306.371 122.753 307.584 123.327 308.518 123.953C309.464 124.58 310.151 125.3 310.578 126.113C311.018 126.913 311.238 127.84 311.238 128.893C311.238 130.733 310.571 132.18 309.238 133.233C307.918 134.287 306.091 134.813 303.758 134.813Z"/>
<path d="M319.871 134.813C318.405 134.813 317.285 134.387 316.511 133.533C315.751 132.667 315.371 131.413 315.371 129.773V117.373H312.171V113.893H315.371V107.373L319.351 105.453V113.893H324.251V117.373H319.351V128.713C319.351 129.567 319.505 130.193 319.811 130.593C320.131 130.993 320.625 131.193 321.291 131.193C322.251 131.193 323.291 130.853 324.411 130.173L323.951 133.893C323.338 134.213 322.698 134.447 322.031 134.593C321.365 134.74 320.645 134.813 319.871 134.813Z"/>
<path d="M334.056 134.813C331.616 134.813 329.783 134.08 328.556 132.613C327.329 131.147 326.716 128.947 326.716 126.013V113.893H330.696V125.833C330.696 127.567 331.043 128.873 331.736 129.753C332.443 130.62 333.483 131.053 334.856 131.053C336.349 131.053 337.463 130.627 338.196 129.773C338.943 128.907 339.316 127.62 339.316 125.913V113.893H343.296V134.333H339.316V132.393C338.676 133.22 337.929 133.833 337.076 134.233C336.223 134.62 335.216 134.813 334.056 134.813Z"/>
<path d="M354.793 134.813C352.193 134.813 350.14 133.86 348.633 131.953C347.127 130.033 346.373 127.413 346.373 124.093C346.373 121.92 346.72 120.033 347.413 118.433C348.107 116.833 349.08 115.6 350.333 114.733C351.6 113.853 353.093 113.413 354.813 113.413C356.76 113.413 358.407 114.06 359.753 115.353V107.293L363.733 105.453V134.333H359.753V132.713C358.527 134.113 356.873 134.813 354.793 134.813ZM355.393 131.053C356.313 131.053 357.147 130.847 357.893 130.433C358.64 130.007 359.26 129.4 359.753 128.613V119.473C359.26 118.753 358.627 118.187 357.853 117.773C357.093 117.347 356.273 117.133 355.393 117.133C353.793 117.133 352.56 117.733 351.693 118.933C350.827 120.133 350.393 121.853 350.393 124.093C350.393 125.493 350.6 126.72 351.013 127.773C351.427 128.813 352.007 129.62 352.753 130.193C353.5 130.767 354.38 131.053 355.393 131.053Z"/>
<path d="M368.269 134.333V113.893H372.249V134.333H368.269ZM370.249 110.553C369.582 110.553 369.009 110.32 368.529 109.853C368.062 109.373 367.829 108.8 367.829 108.133C367.829 107.453 368.062 106.873 368.529 106.393C368.995 105.913 369.569 105.673 370.249 105.673C370.942 105.673 371.522 105.913 371.989 106.393C372.455 106.873 372.689 107.453 372.689 108.133C372.689 108.813 372.455 109.387 371.989 109.853C371.522 110.32 370.942 110.553 370.249 110.553Z"/>
<path d="M384.736 134.813C381.909 134.813 379.682 133.86 378.056 131.953C376.429 130.033 375.616 127.427 375.616 124.133C375.616 121.933 375.982 120.033 376.716 118.433C377.462 116.833 378.516 115.6 379.876 114.733C381.249 113.853 382.869 113.413 384.736 113.413C386.616 113.413 388.236 113.847 389.596 114.713C390.969 115.567 392.022 116.793 392.756 118.393C393.489 119.993 393.856 121.893 393.856 124.093C393.856 126.307 393.482 128.213 392.736 129.813C392.002 131.413 390.956 132.647 389.596 133.513C388.236 134.38 386.616 134.813 384.736 134.813ZM384.736 131.053C386.336 131.053 387.582 130.44 388.476 129.213C389.382 127.987 389.836 126.28 389.836 124.093C389.836 121.907 389.382 120.2 388.476 118.973C387.582 117.747 386.336 117.133 384.736 117.133C383.136 117.133 381.882 117.747 380.976 118.973C380.082 120.2 379.636 121.92 379.636 124.133C379.636 126.307 380.082 128.007 380.976 129.233C381.882 130.447 383.136 131.053 384.736 131.053Z"/>
</mask>
<path d="M291.6 134.853C290.773 134.853 290.073 134.567 289.5 133.993C288.94 133.42 288.66 132.74 288.66 131.953C288.66 131.18 288.94 130.5 289.5 129.913C290.073 129.327 290.773 129.033 291.6 129.033C292.44 129.033 293.147 129.327 293.72 129.913C294.293 130.5 294.58 131.18 294.58 131.953C294.58 132.74 294.293 133.42 293.72 133.993C293.147 134.567 292.44 134.853 291.6 134.853Z" stroke="url(#paint9_linear_7_264)" stroke-width="3" mask="url(#path-7-outside-2_7_264)"/>
<path d="M303.758 134.813C302.264 134.813 300.831 134.493 299.458 133.853C298.098 133.213 296.991 132.353 296.138 131.273L298.898 128.933C299.604 129.693 300.398 130.287 301.278 130.713C302.158 131.127 303.018 131.333 303.858 131.333C305.004 131.333 305.891 131.127 306.518 130.713C307.144 130.287 307.458 129.7 307.458 128.953C307.458 128.473 307.311 128.04 307.018 127.653C306.738 127.253 306.258 126.873 305.578 126.513C304.898 126.14 303.978 125.74 302.818 125.313C300.551 124.473 298.931 123.567 297.958 122.593C296.984 121.607 296.498 120.373 296.498 118.893C296.498 117.267 297.151 115.947 298.458 114.933C299.764 113.92 301.458 113.413 303.538 113.413C304.978 113.413 306.298 113.687 307.498 114.233C308.698 114.767 309.731 115.547 310.598 116.573L307.898 118.793C306.684 117.527 305.218 116.893 303.498 116.893C302.524 116.893 301.751 117.08 301.178 117.453C300.604 117.813 300.318 118.313 300.318 118.953C300.318 119.58 300.644 120.127 301.298 120.593C301.951 121.06 303.144 121.607 304.878 122.233C306.371 122.753 307.584 123.327 308.518 123.953C309.464 124.58 310.151 125.3 310.578 126.113C311.018 126.913 311.238 127.84 311.238 128.893C311.238 130.733 310.571 132.18 309.238 133.233C307.918 134.287 306.091 134.813 303.758 134.813Z" stroke="url(#paint10_linear_7_264)" stroke-width="3" mask="url(#path-7-outside-2_7_264)"/>
<path d="M319.871 134.813C318.405 134.813 317.285 134.387 316.511 133.533C315.751 132.667 315.371 131.413 315.371 129.773V117.373H312.171V113.893H315.371V107.373L319.351 105.453V113.893H324.251V117.373H319.351V128.713C319.351 129.567 319.505 130.193 319.811 130.593C320.131 130.993 320.625 131.193 321.291 131.193C322.251 131.193 323.291 130.853 324.411 130.173L323.951 133.893C323.338 134.213 322.698 134.447 322.031 134.593C321.365 134.74 320.645 134.813 319.871 134.813Z" stroke="url(#paint11_linear_7_264)" stroke-width="3" mask="url(#path-7-outside-2_7_264)"/>
<path d="M334.056 134.813C331.616 134.813 329.783 134.08 328.556 132.613C327.329 131.147 326.716 128.947 326.716 126.013V113.893H330.696V125.833C330.696 127.567 331.043 128.873 331.736 129.753C332.443 130.62 333.483 131.053 334.856 131.053C336.349 131.053 337.463 130.627 338.196 129.773C338.943 128.907 339.316 127.62 339.316 125.913V113.893H343.296V134.333H339.316V132.393C338.676 133.22 337.929 133.833 337.076 134.233C336.223 134.62 335.216 134.813 334.056 134.813Z" stroke="url(#paint12_linear_7_264)" stroke-width="3" mask="url(#path-7-outside-2_7_264)"/>
<path d="M354.793 134.813C352.193 134.813 350.14 133.86 348.633 131.953C347.127 130.033 346.373 127.413 346.373 124.093C346.373 121.92 346.72 120.033 347.413 118.433C348.107 116.833 349.08 115.6 350.333 114.733C351.6 113.853 353.093 113.413 354.813 113.413C356.76 113.413 358.407 114.06 359.753 115.353V107.293L363.733 105.453V134.333H359.753V132.713C358.527 134.113 356.873 134.813 354.793 134.813ZM355.393 131.053C356.313 131.053 357.147 130.847 357.893 130.433C358.64 130.007 359.26 129.4 359.753 128.613V119.473C359.26 118.753 358.627 118.187 357.853 117.773C357.093 117.347 356.273 117.133 355.393 117.133C353.793 117.133 352.56 117.733 351.693 118.933C350.827 120.133 350.393 121.853 350.393 124.093C350.393 125.493 350.6 126.72 351.013 127.773C351.427 128.813 352.007 129.62 352.753 130.193C353.5 130.767 354.38 131.053 355.393 131.053Z" stroke="url(#paint13_linear_7_264)" stroke-width="3" mask="url(#path-7-outside-2_7_264)"/>
<path d="M368.269 134.333V113.893H372.249V134.333H368.269ZM370.249 110.553C369.582 110.553 369.009 110.32 368.529 109.853C368.062 109.373 367.829 108.8 367.829 108.133C367.829 107.453 368.062 106.873 368.529 106.393C368.995 105.913 369.569 105.673 370.249 105.673C370.942 105.673 371.522 105.913 371.989 106.393C372.455 106.873 372.689 107.453 372.689 108.133C372.689 108.813 372.455 109.387 371.989 109.853C371.522 110.32 370.942 110.553 370.249 110.553Z" stroke="url(#paint14_linear_7_264)" stroke-width="3" mask="url(#path-7-outside-2_7_264)"/>
<path d="M384.736 134.813C381.909 134.813 379.682 133.86 378.056 131.953C376.429 130.033 375.616 127.427 375.616 124.133C375.616 121.933 375.982 120.033 376.716 118.433C377.462 116.833 378.516 115.6 379.876 114.733C381.249 113.853 382.869 113.413 384.736 113.413C386.616 113.413 388.236 113.847 389.596 114.713C390.969 115.567 392.022 116.793 392.756 118.393C393.489 119.993 393.856 121.893 393.856 124.093C393.856 126.307 393.482 128.213 392.736 129.813C392.002 131.413 390.956 132.647 389.596 133.513C388.236 134.38 386.616 134.813 384.736 134.813ZM384.736 131.053C386.336 131.053 387.582 130.44 388.476 129.213C389.382 127.987 389.836 126.28 389.836 124.093C389.836 121.907 389.382 120.2 388.476 118.973C387.582 117.747 386.336 117.133 384.736 117.133C383.136 117.133 381.882 117.747 380.976 118.973C380.082 120.2 379.636 121.92 379.636 124.133C379.636 126.307 380.082 128.007 380.976 129.233C381.882 130.447 383.136 131.053 384.736 131.053Z" stroke="url(#paint15_linear_7_264)" stroke-width="3" mask="url(#path-7-outside-2_7_264)"/>
<defs>
<linearGradient id="paint0_linear_7_264" x1="52" y1="107.357" x2="52" y2="-45.673" gradientUnits="userSpaceOnUse">
<stop stop-color="#417AFF"/>
<stop offset="1" stop-color="#FF00FF"/>
</linearGradient>
<linearGradient id="paint1_linear_7_264" x1="45.6021" y1="33.9976" x2="45.6021" y2="-13.4803" gradientUnits="userSpaceOnUse">
<stop stop-color="#417AFF"/>
<stop offset="1" stop-color="#FF00FF"/>
</linearGradient>
<linearGradient id="paint2_linear_7_264" x1="63.2778" y1="107.357" x2="63.2778" y2="53.3536" gradientUnits="userSpaceOnUse">
<stop stop-color="#417AFF"/>
<stop offset="1" stop-color="#FF00FF"/>
</linearGradient>
<linearGradient id="paint3_linear_7_264" x1="56.5938" y1="102.076" x2="56.5938" y2="3.93552" gradientUnits="userSpaceOnUse">
<stop stop-color="#417AFF"/>
<stop offset="1" stop-color="#FF00FF"/>
</linearGradient>
<linearGradient id="paint4_linear_7_264" x1="50.9889" y1="76.3252" x2="50.9889" y2="-26.5478" gradientUnits="userSpaceOnUse">
<stop stop-color="#417AFF"/>
<stop offset="1" stop-color="#FF00FF"/>
</linearGradient>
<linearGradient id="paint5_linear_7_264" x1="253.667" y1="16" x2="253.667" y2="137.102" gradientUnits="userSpaceOnUse">
<stop stop-color="#417AFF"/>
<stop offset="1" stop-color="#FF00FF"/>
</linearGradient>
<linearGradient id="paint6_linear_7_264" x1="253.667" y1="16" x2="253.667" y2="137.102" gradientUnits="userSpaceOnUse">
<stop stop-color="#417AFF"/>
<stop offset="1" stop-color="#FF00FF"/>
</linearGradient>
<linearGradient id="paint7_linear_7_264" x1="253.667" y1="16" x2="253.667" y2="137.102" gradientUnits="userSpaceOnUse">
<stop stop-color="#417AFF"/>
<stop offset="1" stop-color="#FF00FF"/>
</linearGradient>
<linearGradient id="paint8_linear_7_264" x1="253.667" y1="16" x2="253.667" y2="137.102" gradientUnits="userSpaceOnUse">
<stop stop-color="#417AFF"/>
<stop offset="1" stop-color="#FF00FF"/>
</linearGradient>
<linearGradient id="paint9_linear_7_264" x1="341.258" y1="105.453" x2="341.258" y2="147.755" gradientUnits="userSpaceOnUse">
<stop stop-color="#417AFF"/>
<stop offset="1" stop-color="#FF00FF"/>
</linearGradient>
<linearGradient id="paint10_linear_7_264" x1="341.258" y1="105.453" x2="341.258" y2="147.755" gradientUnits="userSpaceOnUse">
<stop stop-color="#417AFF"/>
<stop offset="1" stop-color="#FF00FF"/>
</linearGradient>
<linearGradient id="paint11_linear_7_264" x1="341.258" y1="105.453" x2="341.258" y2="147.755" gradientUnits="userSpaceOnUse">
<stop stop-color="#417AFF"/>
<stop offset="1" stop-color="#FF00FF"/>
</linearGradient>
<linearGradient id="paint12_linear_7_264" x1="341.258" y1="105.453" x2="341.258" y2="147.755" gradientUnits="userSpaceOnUse">
<stop stop-color="#417AFF"/>
<stop offset="1" stop-color="#FF00FF"/>
</linearGradient>
<linearGradient id="paint13_linear_7_264" x1="341.258" y1="105.453" x2="341.258" y2="147.755" gradientUnits="userSpaceOnUse">
<stop stop-color="#417AFF"/>
<stop offset="1" stop-color="#FF00FF"/>
</linearGradient>
<linearGradient id="paint14_linear_7_264" x1="341.258" y1="105.453" x2="341.258" y2="147.755" gradientUnits="userSpaceOnUse">
<stop stop-color="#417AFF"/>
<stop offset="1" stop-color="#FF00FF"/>
</linearGradient>
<linearGradient id="paint15_linear_7_264" x1="341.258" y1="105.453" x2="341.258" y2="147.755" gradientUnits="userSpaceOnUse">
<stop stop-color="#417AFF"/>
<stop offset="1" stop-color="#FF00FF"/>
</linearGradient>
</defs>
</svg>
