<svg width="394" height="130" viewBox="0 0 394 130" fill="none" xmlns="http://www.w3.org/2000/svg">
<path d="M149.279 95.2329C144.014 95.2329 139.21 94.2803 134.868 92.3751C130.564 90.4699 126.836 87.7455 123.685 84.2019C120.573 80.6202 118.19 76.3335 116.538 71.3419L132.793 65.2835C134.599 69.0557 136.981 72.1612 139.94 74.5998C142.899 77.0003 146.166 78.2006 149.74 78.2006C153.314 78.2006 156.176 77.5528 158.328 76.2573C160.519 74.9237 161.614 72.9804 161.614 70.4275C161.614 68.7509 160.98 67.3601 159.712 66.2551C158.482 65.1501 156.734 64.1785 154.466 63.3402C152.238 62.4638 149.624 61.5493 146.627 60.5967C143.591 59.606 140.498 58.5201 137.347 57.3389C134.195 56.1577 131.294 54.6716 128.643 52.8808C126.029 51.0518 123.916 48.7275 122.302 45.9078C120.688 43.0881 119.881 39.5636 119.881 35.3341C119.881 31.1808 120.995 27.3704 123.224 23.903C125.453 20.4356 128.681 17.6731 132.908 15.6155C137.174 13.5198 142.323 12.4719 148.356 12.4719C153.352 12.4719 157.79 13.3864 161.672 15.2154C165.553 17.0062 168.762 19.4449 171.298 22.5313C173.873 25.6177 175.679 29.0851 176.716 32.9335L160.576 38.1918C159.424 35.7151 157.848 33.6575 155.85 32.0191C153.89 30.3425 151.085 29.5042 147.434 29.5042C144.398 29.5042 142.054 30.0377 140.402 31.1046C138.788 32.1334 137.981 33.6575 137.981 35.677C137.981 36.8963 138.538 37.9632 139.652 38.8777C140.767 39.7541 142.323 40.5733 144.321 41.3354C146.32 42.0975 148.664 42.9167 151.354 43.7931C154.774 44.8981 158.156 46.1174 161.499 47.451C164.88 48.7846 167.936 50.4231 170.664 52.3664C173.431 54.3097 175.621 56.7483 177.235 59.6823C178.888 62.6162 179.714 66.2361 179.714 70.5418C179.714 75.762 178.35 80.2201 175.621 83.9161C172.931 87.5741 169.281 90.3747 164.669 92.318C160.096 94.2613 154.966 95.2329 149.279 95.2329Z" fill="white"/>
<path d="M183.178 93.8612V13.8436H199.664L228.831 54.424C229.176 54.9193 229.734 55.8147 230.502 57.1103C231.271 58.4058 231.828 59.4917 232.174 60.3681C232.059 59.606 231.963 58.5582 231.886 57.2246C231.847 55.8528 231.828 54.8812 231.828 54.3097V13.8436H249.928V93.8612H234.134L204.275 52.9379C203.891 52.4045 203.314 51.4709 202.546 50.1373C201.816 48.8037 201.239 47.6796 200.816 46.7651C201.009 47.7939 201.105 48.8989 201.105 50.0802C201.143 51.2233 201.162 52.1758 201.162 52.9379V93.8612H183.178Z" fill="white"/>
<path d="M289.771 95.2329C283.546 95.2329 278.166 94.0898 273.631 91.8036C269.135 89.4793 265.446 86.3548 262.564 82.4301C259.682 78.4673 257.53 74.0283 256.108 69.1129C254.725 64.1594 254.033 59.0726 254.033 53.8524C254.033 49.0133 254.744 44.1741 256.166 39.3349C257.588 34.4577 259.759 29.9996 262.679 25.9606C265.6 21.8835 269.308 18.6256 273.804 16.187C278.301 13.7103 283.623 12.4719 289.771 12.4719C295.036 12.4719 299.532 13.3674 303.26 15.1582C306.987 16.9491 310.158 19.2734 312.771 22.1312C315.422 24.9508 317.747 27.942 319.745 31.1046L303.836 40.0208C302.107 37.2774 300.089 34.8768 297.784 32.8192C295.516 30.7616 292.846 29.7328 289.771 29.7328C286.543 29.7328 283.834 30.4949 281.644 32.0191C279.492 33.5051 277.782 35.4484 276.514 37.8489C275.245 40.2494 274.323 42.8595 273.747 45.6792C273.209 48.4989 272.94 51.2233 272.94 53.8524C272.94 56.8626 273.247 59.8156 273.862 62.7115C274.477 65.5693 275.438 68.1603 276.744 70.4846C278.089 72.7708 279.838 74.5998 281.99 75.9715C284.142 77.3052 286.736 77.972 289.771 77.972C291.808 77.972 293.71 77.5147 295.478 76.6002C297.284 75.6477 298.744 74.4283 299.859 72.9423C300.973 71.4182 301.53 69.7797 301.53 68.0269V67.684H288.503V50.4231H320.207V63.2259C320.207 70.1226 318.862 75.9525 316.172 80.7154C313.482 85.4784 309.831 89.0982 305.22 91.575C300.647 94.0136 295.497 95.2329 289.771 95.2329Z" fill="white"/>
<path d="M325.136 93.8612V13.8436H365.14C372.019 13.8436 377.475 15.0439 381.51 17.4444C385.545 19.8069 388.427 22.9695 390.157 26.9322C391.924 30.895 392.808 35.2198 392.808 39.9065C392.808 42.8405 392.251 45.8697 391.137 48.9942C390.022 52.0806 388.389 54.9193 386.237 57.5103C384.124 60.0633 381.549 62.0066 378.513 63.3402L393.5 93.8612H373.095L358.684 66.198H343.351V93.8612H325.136ZM343.351 49.1657H365.37C367.522 49.1657 369.213 48.7465 370.443 47.9082C371.711 47.0319 372.595 45.8888 373.095 44.4789C373.633 43.0691 373.902 41.545 373.902 39.9065C373.902 38.3824 373.652 36.9344 373.152 35.5627C372.653 34.191 371.769 33.0669 370.501 32.1905C369.271 31.3141 367.561 30.876 365.37 30.876H343.351V49.1657Z" fill="white"/>
<path d="M292.319 129.34C291.506 129.34 290.817 129.058 290.254 128.494C289.703 127.931 289.428 127.262 289.428 126.489C289.428 125.728 289.703 125.06 290.254 124.483C290.817 123.906 291.506 123.617 292.319 123.617C293.145 123.617 293.839 123.906 294.403 124.483C294.967 125.06 295.249 125.728 295.249 126.489C295.249 127.262 294.967 127.931 294.403 128.494C293.839 129.058 293.145 129.34 292.319 129.34Z" fill="white"/>
<path d="M304.273 129.301C302.805 129.301 301.396 128.986 300.045 128.357C298.708 127.728 297.62 126.882 296.781 125.82L299.495 123.519C300.189 124.266 300.969 124.85 301.835 125.269C302.7 125.676 303.546 125.879 304.372 125.879C305.499 125.879 306.371 125.676 306.987 125.269C307.603 124.85 307.912 124.273 307.912 123.539C307.912 123.067 307.767 122.641 307.479 122.26C307.204 121.867 306.732 121.493 306.063 121.139C305.394 120.772 304.49 120.379 303.349 119.959C301.12 119.133 299.527 118.242 298.57 117.285C297.613 116.315 297.135 115.102 297.135 113.647C297.135 112.047 297.777 110.749 299.062 109.753C300.347 108.756 302.012 108.258 304.057 108.258C305.473 108.258 306.771 108.527 307.951 109.065C309.131 109.589 310.147 110.356 310.999 111.365L308.344 113.548C307.151 112.303 305.709 111.68 304.018 111.68C303.061 111.68 302.3 111.864 301.736 112.231C301.173 112.585 300.891 113.076 300.891 113.706C300.891 114.322 301.212 114.859 301.854 115.318C302.497 115.777 303.67 116.315 305.375 116.931C306.843 117.442 308.036 118.006 308.954 118.622C309.885 119.238 310.56 119.946 310.979 120.746C311.412 121.533 311.628 122.444 311.628 123.48C311.628 125.289 310.973 126.711 309.662 127.747C308.364 128.783 306.568 129.301 304.273 129.301Z" fill="white"/>
<path d="M320.118 129.301C318.676 129.301 317.574 128.881 316.814 128.042C316.067 127.19 315.693 125.958 315.693 124.345V112.152H312.547V108.73H315.693V102.319L319.607 100.431V108.73H324.425V112.152H319.607V123.303C319.607 124.142 319.757 124.758 320.059 125.151C320.374 125.545 320.859 125.741 321.514 125.741C322.458 125.741 323.481 125.407 324.582 124.738L324.13 128.396C323.527 128.711 322.897 128.94 322.242 129.084C321.586 129.229 320.878 129.301 320.118 129.301Z" fill="white"/>
<path d="M334.066 129.301C331.666 129.301 329.864 128.58 328.658 127.138C327.451 125.695 326.848 123.532 326.848 120.648V108.73H330.762V120.471C330.762 122.175 331.103 123.46 331.784 124.325C332.479 125.177 333.502 125.604 334.852 125.604C336.321 125.604 337.416 125.184 338.137 124.345C338.871 123.493 339.238 122.228 339.238 120.549V108.73H343.151V128.829H339.238V126.921C338.609 127.734 337.874 128.337 337.035 128.73C336.196 129.111 335.206 129.301 334.066 129.301Z" fill="white"/>
<path d="M354.457 129.301C351.9 129.301 349.881 128.363 348.399 126.489C346.918 124.601 346.177 122.024 346.177 118.76C346.177 116.623 346.518 114.768 347.2 113.194C347.882 111.621 348.839 110.408 350.071 109.556C351.317 108.691 352.785 108.258 354.476 108.258C356.39 108.258 358.01 108.894 359.334 110.166V102.24L363.247 100.431V128.829H359.334V127.236C358.128 128.612 356.502 129.301 354.457 129.301ZM355.047 125.604C355.951 125.604 356.771 125.4 357.505 124.994C358.239 124.574 358.849 123.978 359.334 123.204V114.217C358.849 113.509 358.226 112.952 357.465 112.545C356.718 112.126 355.912 111.916 355.047 111.916C353.473 111.916 352.261 112.506 351.408 113.686C350.556 114.866 350.13 116.557 350.13 118.76C350.13 120.136 350.333 121.343 350.74 122.378C351.146 123.401 351.716 124.194 352.451 124.758C353.185 125.322 354.05 125.604 355.047 125.604Z" fill="white"/>
<path d="M367.707 128.829V108.73H371.62V128.829H367.707ZM369.654 105.446C368.998 105.446 368.434 105.217 367.962 104.758C367.504 104.286 367.274 103.722 367.274 103.066C367.274 102.398 367.504 101.827 367.962 101.355C368.421 100.883 368.985 100.647 369.654 100.647C370.336 100.647 370.906 100.883 371.365 101.355C371.824 101.827 372.053 102.398 372.053 103.066C372.053 103.735 371.824 104.299 371.365 104.758C370.906 105.217 370.336 105.446 369.654 105.446Z" fill="white"/>
<path d="M383.899 129.301C381.119 129.301 378.93 128.363 377.33 126.489C375.731 124.601 374.931 122.038 374.931 118.799C374.931 116.636 375.292 114.768 376.013 113.194C376.747 111.621 377.783 110.408 379.12 109.556C380.47 108.691 382.063 108.258 383.899 108.258C385.747 108.258 387.34 108.684 388.678 109.536C390.028 110.376 391.064 111.582 391.785 113.155C392.506 114.728 392.866 116.597 392.866 118.76C392.866 120.936 392.499 122.811 391.765 124.384C391.044 125.958 390.015 127.17 388.678 128.023C387.34 128.875 385.747 129.301 383.899 129.301ZM383.899 125.604C385.472 125.604 386.698 125.001 387.576 123.794C388.468 122.588 388.914 120.91 388.914 118.76C388.914 116.61 388.468 114.932 387.576 113.725C386.698 112.519 385.472 111.916 383.899 111.916C382.325 111.916 381.093 112.519 380.201 113.725C379.323 114.932 378.884 116.623 378.884 118.799C378.884 120.936 379.323 122.608 380.201 123.814C381.093 125.007 382.325 125.604 383.899 125.604Z" fill="white"/>
<path fill-rule="evenodd" clip-rule="evenodd" d="M82.5377 12.8505C84.0272 14.0717 85.4289 15.3596 86.7481 16.7034C85.5978 15.7594 84.4072 14.9149 83.1758 14.1691C79.5395 11.9692 75.6131 10.6642 71.3965 10.2562C67.1798 9.84827 62.8168 10.4442 58.308 12.0434C53.7978 13.6426 50.2535 15.7989 47.6728 18.5124C45.0922 21.2258 43.1477 24.2423 41.8393 27.562C40.5316 30.8816 39.7157 34.3967 39.3929 38.1072C39.0693 41.8178 38.9106 45.4698 38.9161 49.0639C39.0727 57.258 38.6266 63.2332 37.5798 66.9887C36.5323 70.7449 34.4114 73.1893 31.2171 74.3227C29.7146 74.8553 28.2687 75.1039 26.8806 75.0671C25.4932 75.0303 24.1358 74.5597 22.8104 73.6552C21.485 72.7507 20.2053 71.3804 18.9725 69.5435C17.7398 67.7066 16.573 65.2383 15.4731 62.138C13.2739 55.9381 12.0506 50.4758 11.8027 45.7511C11.5548 41.0271 11.7128 36.9256 12.2768 33.4466C8.96258 30.3817 5.18255 30.5254 1 33.4452C2.92543 28.7559 5.56805 24.2682 8.94896 20.1436C27.2559 -2.19131 60.2028 -5.45644 82.5377 12.8505ZM99.3299 68.8236C97.3888 75.0753 94.236 81.0647 89.8307 86.4399C73.3396 106.558 44.971 111.201 23.1789 98.5428C28.142 99.5637 33.4565 99.0699 39.1231 97.0601C43.8206 95.3941 47.5965 93.3672 50.4517 90.9793C53.3068 88.5921 55.5142 85.72 57.0732 82.3642C58.6329 79.0085 59.662 75.127 60.1612 70.719C60.6605 66.3117 60.9499 61.2383 61.0296 55.4988C61.0085 52.756 61.0392 50.234 61.1209 47.9305C61.2033 45.6271 61.4628 43.526 61.8994 41.6257C62.3359 39.7262 63.015 38.1365 63.9365 36.8581C64.8573 35.5797 66.2106 34.6235 67.9958 33.9901C71.0021 32.9242 73.6413 33.2831 75.9141 35.0689C78.1862 36.854 80.2553 40.3766 82.1215 45.638C83.7875 50.3348 84.6722 54.5425 84.7744 58.2613C84.8772 61.9793 84.7069 65.4501 84.2642 68.6744C88.8486 73.6743 93.9969 72.2917 99.3299 68.8236Z" fill="#B6B6B7" fill-opacity="0.6"/>
<path d="M99.3299 68.8236C97.3888 75.0753 94.236 81.0647 89.8307 86.4399C73.3396 106.558 44.971 111.201 23.1789 98.5428C28.142 99.5637 33.4565 99.0699 39.1232 97.0601C43.8206 95.3941 47.5965 93.3672 50.4517 90.9793C53.3068 88.5921 55.5142 85.72 57.0732 82.3642C58.6329 79.0085 59.662 75.127 60.1612 70.719C60.6605 66.3117 60.9499 61.2383 61.0296 55.4988C61.0085 52.756 61.0392 50.234 61.1209 47.9305C61.2033 45.6271 61.4628 43.526 61.8994 41.6257C62.3359 39.7262 63.015 38.1365 63.9365 36.8581C64.8573 35.5797 66.2106 34.6235 67.9958 33.9901C71.0021 32.9242 73.6413 33.2831 75.9141 35.0689C78.1862 36.854 80.2553 40.3766 82.1215 45.638C83.7875 50.3348 84.6722 54.5425 84.7744 58.2613C84.8772 61.9793 84.7069 65.4501 84.2642 68.6744C88.8486 73.6743 93.9969 72.2917 99.3299 68.8236M82.5377 12.8505C84.0272 14.0717 85.4289 15.3596 86.7481 16.7034C85.5978 15.7594 84.4073 14.9149 83.1758 14.1691C79.5395 11.9692 75.6131 10.6642 71.3965 10.2562C67.1798 9.84827 62.8168 10.4442 58.308 12.0434C53.7978 13.6426 50.2535 15.7989 47.6728 18.5124C45.0922 21.2258 43.1477 24.2423 41.8393 27.562C40.5316 30.8816 39.7157 34.3967 39.3929 38.1072C39.0693 41.8178 38.9106 45.4698 38.9161 49.0639C39.0727 57.258 38.6266 63.2332 37.5798 66.9887C36.5323 70.7449 34.4114 73.1893 31.2171 74.3227C29.7146 74.8553 28.2687 75.1039 26.8806 75.0671C25.4932 75.0303 24.1358 74.5597 22.8104 73.6552C21.485 72.7507 20.2053 71.3804 18.9725 69.5435C17.7398 67.7066 16.573 65.2383 15.4731 62.138C13.2739 55.9381 12.0506 50.4758 11.8027 45.7511C11.5548 41.0271 11.7128 36.9256 12.2768 33.4466C8.96258 30.3817 5.18255 30.5254 1 33.4452C2.92543 28.7559 5.56805 24.2682 8.94896 20.1436C27.2559 -2.1913 60.2028 -5.45644 82.5377 12.8505V12.8505Z" stroke="white" stroke-width="0.5"/>
<path d="M12.2767 33.4468C31.2007 2.24075 61.7305 -3.71401 86.6528 16.6253C86.6848 16.6518 86.7168 16.6771 86.7481 16.7036C85.4289 15.3598 84.0272 14.0719 82.5377 12.8507C60.2028 -5.45623 27.2559 -2.19109 8.94896 20.1438C5.56805 24.2684 2.92543 28.7561 1 33.4454C4.95916 30.6925 8.7494 30.2641 12.2767 33.4468Z" fill="url(#paint0_linear_7_306)"/>
<path d="M84.2642 68.6744C77.3825 96.774 55.5169 104.086 24.5608 98.7866C24.097 98.7185 23.6366 98.6368 23.1789 98.5428C44.9709 111.201 73.3396 106.558 89.8307 86.4399C94.236 81.0647 97.3887 75.0753 99.3298 68.8236C93.4521 71.9436 88.318 72.308 84.2642 68.6744Z" fill="url(#paint1_linear_7_306)"/>
<path d="M62.4599 39.7086C89.8818 61.85 68.95 100.23 30.1165 98.9999C28.2189 99.1238 26.3671 99.053 24.5608 98.7867C55.5169 104.086 77.3825 96.7748 84.2642 68.6745C84.7069 65.4502 84.8772 61.9794 84.7743 58.2613C84.6722 54.5426 83.6744 50.3737 82.1215 45.6381C80.1934 39.7556 78.2563 37.1565 75.9141 35.069C73.2258 32.6729 65.5064 31.4824 62.4599 39.7086Z" fill="white" fill-opacity="0.5" stroke="white" stroke-width="0.5"/>
<path d="M36.1679 70.3188C12.1051 32.1698 37.9769 -6.14334 76.948 11.3626C79.1104 12.0301 81.1864 12.9659 83.1758 14.1694C84.3732 14.8941 85.5324 15.7134 86.6528 16.6254C61.7305 -3.71392 31.2007 2.24084 12.2767 33.4469C11.7128 36.9259 11.5548 41.0274 11.8027 45.7514C12.0506 50.4761 13.2739 55.9384 15.4731 62.1383C16.573 65.2386 17.8487 67.6381 18.9725 69.5438C19.9349 71.1763 21.2099 72.5508 22.8104 73.6555C23.9186 74.5041 25.2535 75.0074 26.8806 75.0674C29.4742 75.049 33.7596 74.5852 36.1679 70.3188Z" fill="white" fill-opacity="0.5"/>
<path d="M36.1679 70.3188C12.1051 32.1698 37.9769 -6.14334 76.948 11.3626C79.1104 12.0301 81.1864 12.9659 83.1758 14.1694C84.3732 14.8941 85.5324 15.7134 86.6528 16.6254C61.7305 -3.71392 31.2007 2.24084 12.2767 33.4469C11.7128 36.9259 11.5548 41.0274 11.8027 45.7514C12.0506 50.4761 13.2739 55.9384 15.4731 62.1383C16.573 65.2386 17.8487 67.6381 18.9725 69.5438C19.9349 71.1763 21.2099 72.5508 22.8104 73.6555C23.9186 74.5041 25.2535 75.0074 26.8806 75.0674C29.4742 75.049 33.7596 74.5852 36.1679 70.3188" stroke="white" stroke-width="0.5"/>
<defs>
<linearGradient id="paint0_linear_7_306" x1="58.7688" y1="2.22923" x2="11.6822" y2="23.3667" gradientUnits="userSpaceOnUse">
<stop stop-color="white" stop-opacity="0.1"/>
<stop offset="1" stop-color="#FEFEFE"/>
</linearGradient>
<linearGradient id="paint1_linear_7_306" x1="52.2134" y1="107.114" x2="100.149" y2="67.7822" gradientUnits="userSpaceOnUse">
<stop stop-color="white" stop-opacity="0.2"/>
<stop offset="1" stop-color="#FEFEFE"/>
</linearGradient>
</defs>
</svg>
