<svg width="393" height="135" viewBox="0 0 393 135" fill="none" xmlns="http://www.w3.org/2000/svg">
<path fill-rule="evenodd" clip-rule="evenodd" d="M83.2556 12.3858C84.7702 13.6274 86.1958 14.9367 87.5375 16.3036C86.3677 15.3431 85.1574 14.4847 83.9047 13.7264C80.2063 11.489 76.2137 10.1625 71.9253 9.74693C67.637 9.3324 63.1998 9.93802 58.6138 11.5638C54.0281 13.1906 50.4231 15.3835 47.7983 18.1427C45.1739 20.9029 43.1965 23.9704 41.8662 27.3463C40.5361 30.7222 39.7067 34.2973 39.3777 38.0705C39.0491 41.8448 38.8876 45.5584 38.8935 49.2133C39.0527 57.5466 38.5993 63.6235 37.5342 67.443C36.469 71.2625 34.3122 73.7487 31.0638 74.9011C29.5353 75.4429 28.0654 75.6953 26.6538 75.6586C25.2423 75.6211 23.8624 75.1425 22.5141 74.2226C21.1662 73.3023 19.8648 71.9086 18.6109 70.041C17.3569 68.1733 16.1706 65.6626 15.0524 62.5098C12.8159 56.2041 11.5715 50.649 11.3194 45.8445C11.0675 41.04 11.2282 36.8694 11.8021 33.3307C8.43085 30.2136 4.58694 30.3602 0.333344 33.3297C2.29114 28.5606 4.97902 23.9967 8.41741 19.8029C27.0354 -2.91244 60.5411 -6.23273 83.2556 12.3858V12.3858ZM100.333 69.3087C98.3587 75.6661 95.1527 81.7581 90.6717 87.2237C73.9012 107.684 45.0506 112.405 22.8889 99.5325C27.9359 100.571 33.341 100.069 39.1044 98.0246C43.8813 96.3303 47.7216 94.269 50.6249 91.841C53.5281 89.4128 55.7729 86.4923 57.3591 83.0796C58.9451 79.6665 59.9918 75.7191 60.4992 71.2365C61.0067 66.7543 61.301 61.5948 61.3819 55.7579C61.3606 52.9684 61.3918 50.4033 61.4752 48.0607C61.5589 45.7191 61.8227 43.5818 62.2666 41.6497C62.7105 39.7175 63.4012 38.1009 64.3381 36.8007C65.2753 35.4994 66.6512 34.5278 68.4664 33.8838C71.524 32.7999 74.208 33.1649 76.519 34.9808C78.8303 36.7966 80.9343 40.3788 82.832 45.7292C84.5265 50.5055 85.4264 54.7851 85.5305 58.5667C85.6346 62.3479 85.4618 65.8783 85.0108 69.1574C89.6738 74.2416 94.91 72.8355 100.333 69.3087Z" fill="#FF00FF"/>
<path d="M11.8021 33.3306C31.0469 1.59467 62.0948 -4.46152 87.4404 16.2236C87.4727 16.2509 87.5051 16.2772 87.5375 16.3035C86.1958 14.9365 84.7702 13.6272 83.2556 12.3856C60.5411 -6.23288 27.0354 -2.91259 8.41741 19.8027C4.97902 23.9965 2.29114 28.5604 0.333344 33.3296C4.35976 30.53 8.21439 30.0942 11.8021 33.3306" fill="url(#paint0_linear_7_86)"/>
<path d="M85.0109 69.1574C78.0134 97.7343 55.7758 105.17 24.2945 99.7809C23.8229 99.711 23.3546 99.6284 22.8889 99.5325C45.0507 112.405 73.9012 107.684 90.6717 87.2237C95.1527 81.7581 98.3588 75.6661 100.333 69.3087C94.355 72.4817 89.1339 72.8525 85.0109 69.1574Z" fill="url(#paint1_linear_7_86)"/>
<path d="M63.2559 38.6763C91.1429 61.1936 69.4372 101.249 29.9441 99.997C28.0148 100.124 26.1313 100.052 24.2945 99.781C55.7758 105.17 78.0134 97.7344 85.0108 69.1575C85.4618 65.8784 85.6347 62.348 85.5305 58.5668C85.4264 54.7852 84.5265 50.5056 82.832 45.7294C80.9343 40.3789 78.62 36.6734 76.519 34.9809C73.7918 32.7839 66.7969 31.337 63.2559 38.6763" fill="url(#paint2_linear_7_86)"/>
<path d="M36.0982 70.8297C11.6267 32.0326 37.9382 -6.93128 77.5705 10.8723C79.7705 11.5507 81.8816 12.5021 83.9047 13.7265C85.122 14.4636 86.3009 15.2957 87.4404 16.2238C62.0948 -4.46127 31.0469 1.59492 11.8021 33.3308C11.2282 36.8695 11.0675 41.0401 11.3194 45.8446C11.5715 50.6491 12.8159 56.2042 15.0524 62.5099C16.1705 65.6627 17.4679 68.1031 18.6109 70.0411C19.5903 71.701 20.8865 73.0987 22.5141 74.2227C23.6409 75.0856 24.999 75.5975 26.6538 75.6587C29.2909 75.6398 33.6491 75.1678 36.0982 70.8297" fill="url(#paint3_linear_7_86)"/>
<path d="M144.464 99.4999C139.11 99.4999 134.225 98.5312 129.808 96.5936C125.431 94.6561 121.64 91.8854 118.436 88.2816C115.27 84.639 112.847 80.2795 111.167 75.2032L127.698 69.0418C129.535 72.8781 131.958 76.0363 134.967 78.5164C137.976 80.9577 141.298 82.1783 144.933 82.1783C148.567 82.1783 151.479 81.5196 153.667 80.202C155.895 78.8458 157.009 76.8695 157.009 74.2732C157.009 72.5681 156.364 71.1537 155.074 70.03C153.824 68.9062 152.045 67.918 149.74 67.0655C147.473 66.1743 144.815 65.2442 141.767 64.2755C138.68 63.2679 135.534 62.1636 132.329 60.9623C129.124 59.761 126.174 58.2497 123.477 56.4284C120.82 54.5684 118.67 52.2046 117.029 49.337C115.387 46.4695 114.567 42.885 114.567 38.5837C114.567 34.3599 115.7 30.4848 117.967 26.9585C120.233 23.4322 123.516 20.6227 127.815 18.5302C132.153 16.3989 137.39 15.3333 143.526 15.3333C148.606 15.3333 153.12 16.2633 157.067 18.1233C161.015 19.9446 164.278 22.4246 166.857 25.5635C169.476 28.7023 171.312 32.2286 172.368 36.1424L155.954 41.49C154.781 38.9712 153.179 36.8787 151.147 35.2124C149.153 33.5074 146.301 32.6548 142.588 32.6548C139.5 32.6548 137.117 33.1974 135.436 34.2824C133.795 35.3286 132.974 36.8787 132.974 38.9325C132.974 40.1725 133.541 41.2575 134.674 42.1875C135.807 43.0788 137.39 43.9119 139.422 44.687C141.455 45.462 143.838 46.2951 146.574 47.1864C150.052 48.3102 153.491 49.5502 156.892 50.9065C160.331 52.2627 163.438 53.929 166.212 55.9053C169.026 57.8816 171.254 60.3616 172.895 63.3455C174.576 66.3293 175.416 70.0106 175.416 74.3894C175.416 79.6983 174.029 84.2321 171.254 87.9909C168.518 91.711 164.805 94.5592 160.116 96.5355C155.465 98.5118 150.248 99.4999 144.464 99.4999Z" fill="#B72FFF"/>
<path d="M178.939 98.1049V16.7283H195.705L225.367 57.9978C225.719 58.5016 226.285 59.4122 227.067 60.7298C227.849 62.0473 228.415 63.1517 228.767 64.043C228.65 63.2679 228.552 62.2023 228.474 60.846C228.435 59.451 228.415 58.4629 228.415 57.8816V16.7283H246.823V98.1049H230.76L200.394 56.4866C200.003 55.9441 199.417 54.9947 198.636 53.6384C197.893 52.2821 197.307 51.139 196.877 50.2089C197.072 51.2552 197.17 52.379 197.17 53.5803C197.209 54.7428 197.229 55.7116 197.229 56.4866V98.1049H178.939Z" fill="#B72FFF"/>
<path d="M287.343 99.4999C281.012 99.4999 275.54 98.3374 270.929 96.0123C266.356 93.6486 262.605 90.471 259.673 86.4797C256.742 82.4496 254.554 77.9351 253.108 72.9363C251.701 67.8987 250.997 62.7254 250.997 57.4166C250.997 52.4952 251.72 47.5739 253.166 42.6525C254.612 37.6924 256.821 33.1586 259.791 29.051C262.761 24.9047 266.532 21.5915 271.105 19.1114C275.677 16.5927 281.09 15.3333 287.343 15.3333C292.697 15.3333 297.269 16.2439 301.06 18.0652C304.851 19.8865 308.075 22.2503 310.733 25.1566C313.429 28.0241 315.794 31.0661 317.826 34.2824L301.647 43.3501C299.888 40.56 297.836 38.1187 295.491 36.0262C293.185 33.9336 290.469 32.8873 287.343 32.8873C284.06 32.8873 281.305 33.6624 279.077 35.2124C276.889 36.7237 275.15 38.7 273.86 41.1413C272.57 43.5826 271.632 46.237 271.046 49.1045C270.499 51.9721 270.225 54.7428 270.225 57.4166C270.225 60.4779 270.538 63.4811 271.163 66.4261C271.789 69.3324 272.766 71.9675 274.094 74.3313C275.462 76.6563 277.24 78.5164 279.429 79.9114C281.618 81.2677 284.255 81.9458 287.343 81.9458C289.414 81.9458 291.349 81.4808 293.146 80.5508C294.983 79.582 296.468 78.342 297.602 76.8307C298.735 75.2807 299.302 73.6144 299.302 71.8319V71.4831H286.053V53.929H318.295V66.9493C318.295 73.9632 316.927 79.892 314.192 84.7359C311.456 89.5797 307.743 93.261 303.053 95.7798C298.403 98.2599 293.166 99.4999 287.343 99.4999Z" fill="#B72FFF"/>
<path d="M323.308 98.1049V16.7283H363.992C370.987 16.7283 376.537 17.9489 380.64 20.3902C384.744 22.7928 387.675 26.0091 389.433 30.0392C391.231 34.0692 392.13 38.4675 392.13 43.2338C392.13 46.2176 391.563 49.2983 390.43 52.4759C389.297 55.6147 387.636 58.5016 385.447 61.1367C383.298 63.733 380.679 65.7093 377.592 67.0655L392.833 98.1049H372.081L357.426 69.9718H341.833V98.1049H323.308ZM341.833 52.6502H364.226C366.415 52.6502 368.134 52.224 369.385 51.3715C370.674 50.4802 371.573 49.3177 372.081 47.8839C372.628 46.4501 372.902 44.9001 372.902 43.2338C372.902 41.6838 372.648 40.2112 372.14 38.8162C371.632 37.4212 370.733 36.278 369.443 35.3868C368.193 34.4955 366.454 34.0499 364.226 34.0499H341.833V52.6502Z" fill="#B72FFF"/>
<path d="M289.933 134.187C289.107 134.187 288.407 133.9 287.833 133.327C287.273 132.753 286.993 132.073 286.993 131.287C286.993 130.513 287.273 129.833 287.833 129.247C288.407 128.66 289.107 128.367 289.933 128.367C290.773 128.367 291.48 128.66 292.053 129.247C292.627 129.833 292.913 130.513 292.913 131.287C292.913 132.073 292.627 132.753 292.053 133.327C291.48 133.9 290.773 134.187 289.933 134.187Z" fill="#B72FFF"/>
<path d="M302.091 134.147C300.598 134.147 299.164 133.827 297.791 133.187C296.431 132.547 295.324 131.687 294.471 130.607L297.231 128.267C297.938 129.027 298.731 129.62 299.611 130.047C300.491 130.46 301.351 130.667 302.191 130.667C303.338 130.667 304.224 130.46 304.851 130.047C305.478 129.62 305.791 129.033 305.791 128.287C305.791 127.807 305.644 127.373 305.351 126.987C305.071 126.587 304.591 126.207 303.911 125.847C303.231 125.473 302.311 125.073 301.151 124.647C298.884 123.807 297.264 122.9 296.291 121.927C295.318 120.94 294.831 119.707 294.831 118.227C294.831 116.6 295.484 115.28 296.791 114.267C298.098 113.253 299.791 112.747 301.871 112.747C303.311 112.747 304.631 113.02 305.831 113.567C307.031 114.1 308.064 114.88 308.931 115.907L306.231 118.127C305.018 116.86 303.551 116.227 301.831 116.227C300.858 116.227 300.084 116.413 299.511 116.787C298.938 117.147 298.651 117.647 298.651 118.287C298.651 118.913 298.978 119.46 299.631 119.927C300.284 120.393 301.478 120.94 303.211 121.567C304.704 122.087 305.918 122.66 306.851 123.287C307.798 123.913 308.484 124.633 308.911 125.447C309.351 126.247 309.571 127.173 309.571 128.227C309.571 130.067 308.904 131.513 307.571 132.567C306.251 133.62 304.424 134.147 302.091 134.147Z" fill="#B72FFF"/>
<path d="M318.205 134.147C316.738 134.147 315.618 133.72 314.845 132.867C314.085 132 313.705 130.747 313.705 129.107V116.707H310.505V113.227H313.705V106.707L317.685 104.787V113.227H322.585V116.707H317.685V128.047C317.685 128.9 317.838 129.527 318.145 129.927C318.465 130.327 318.958 130.527 319.625 130.527C320.585 130.527 321.625 130.187 322.745 129.507L322.285 133.227C321.672 133.547 321.032 133.78 320.365 133.927C319.698 134.073 318.978 134.147 318.205 134.147Z" fill="#B72FFF"/>
<path d="M332.39 134.147C329.95 134.147 328.116 133.413 326.89 131.947C325.663 130.48 325.05 128.28 325.05 125.347V113.227H329.03V125.167C329.03 126.9 329.376 128.207 330.07 129.087C330.776 129.953 331.816 130.387 333.19 130.387C334.683 130.387 335.796 129.96 336.53 129.107C337.276 128.24 337.65 126.953 337.65 125.247V113.227H341.63V133.667H337.65V131.727C337.01 132.553 336.263 133.167 335.41 133.567C334.556 133.953 333.55 134.147 332.39 134.147Z" fill="#B72FFF"/>
<path d="M353.127 134.147C350.527 134.147 348.473 133.193 346.967 131.287C345.46 129.367 344.707 126.747 344.707 123.427C344.707 121.253 345.053 119.367 345.747 117.767C346.44 116.167 347.413 114.933 348.667 114.067C349.933 113.187 351.427 112.747 353.147 112.747C355.093 112.747 356.74 113.393 358.087 114.687V106.627L362.067 104.787V133.667H358.087V132.047C356.86 133.447 355.207 134.147 353.127 134.147ZM353.727 130.387C354.647 130.387 355.48 130.18 356.227 129.767C356.973 129.34 357.593 128.733 358.087 127.947V118.807C357.593 118.087 356.96 117.52 356.187 117.107C355.427 116.68 354.607 116.467 353.727 116.467C352.127 116.467 350.893 117.067 350.027 118.267C349.16 119.467 348.727 121.187 348.727 123.427C348.727 124.827 348.933 126.053 349.347 127.107C349.76 128.147 350.34 128.953 351.087 129.527C351.833 130.1 352.713 130.387 353.727 130.387Z" fill="#B72FFF"/>
<path d="M366.602 133.667V113.227H370.582V133.667H366.602ZM368.582 109.887C367.915 109.887 367.342 109.653 366.862 109.187C366.395 108.707 366.162 108.133 366.162 107.467C366.162 106.787 366.395 106.207 366.862 105.727C367.329 105.247 367.902 105.007 368.582 105.007C369.275 105.007 369.855 105.247 370.322 105.727C370.789 106.207 371.022 106.787 371.022 107.467C371.022 108.147 370.789 108.72 370.322 109.187C369.855 109.653 369.275 109.887 368.582 109.887Z" fill="#B72FFF"/>
<path d="M383.069 134.147C380.242 134.147 378.016 133.193 376.389 131.287C374.762 129.367 373.949 126.76 373.949 123.467C373.949 121.267 374.316 119.367 375.049 117.767C375.796 116.167 376.849 114.933 378.209 114.067C379.582 113.187 381.202 112.747 383.069 112.747C384.949 112.747 386.569 113.18 387.929 114.047C389.302 114.9 390.356 116.127 391.089 117.727C391.822 119.327 392.189 121.227 392.189 123.427C392.189 125.64 391.816 127.547 391.069 129.147C390.336 130.747 389.289 131.98 387.929 132.847C386.569 133.713 384.949 134.147 383.069 134.147ZM383.069 130.387C384.669 130.387 385.916 129.773 386.809 128.547C387.716 127.32 388.169 125.613 388.169 123.427C388.169 121.24 387.716 119.533 386.809 118.307C385.916 117.08 384.669 116.467 383.069 116.467C381.469 116.467 380.216 117.08 379.309 118.307C378.416 119.533 377.969 121.253 377.969 123.467C377.969 125.64 378.416 127.34 379.309 128.567C380.216 129.78 381.469 130.387 383.069 130.387Z" fill="#B72FFF"/>
<defs>
<linearGradient id="paint0_linear_7_86" x1="72.2574" y1="0.977907" x2="-15.8228" y2="29.7616" gradientUnits="userSpaceOnUse">
<stop stop-color="#FF00FF"/>
<stop offset="1" stop-color="#4079FF"/>
</linearGradient>
<linearGradient id="paint1_linear_7_86" x1="110.931" y1="59.976" x2="37.5046" y2="115.582" gradientUnits="userSpaceOnUse">
<stop stop-color="#4079FF"/>
<stop offset="1" stop-color="#FF00FF"/>
</linearGradient>
<linearGradient id="paint2_linear_7_86" x1="99.6923" y1="93.2023" x2="43.8206" y2="64.914" gradientUnits="userSpaceOnUse">
<stop stop-color="#4079FF"/>
<stop offset="1" stop-color="#FF00FF"/>
</linearGradient>
<linearGradient id="paint3_linear_7_86" x1="3.91165" y1="19.2853" x2="53.3993" y2="50.1062" gradientUnits="userSpaceOnUse">
<stop stop-color="#4079FF"/>
<stop offset="1" stop-color="#FF00FF"/>
</linearGradient>
</defs>
</svg>
