<svg width="393" height="129" viewBox="0 0 393 129" fill="none" xmlns="http://www.w3.org/2000/svg">
<path fill-rule="evenodd" clip-rule="evenodd" d="M81.5375 11.8507C83.0264 13.0724 84.4288 14.3595 85.7481 15.7031C84.5973 14.7597 83.4067 13.9149 82.175 13.1688C78.5398 10.9693 74.6131 9.66444 70.3959 9.25647C66.1798 8.8485 61.8162 9.44383 57.3074 11.0436C52.7976 12.6422 49.2533 14.7996 46.6724 17.5124C44.0915 20.2263 42.147 23.2429 40.8388 26.5621C39.5307 29.8813 38.7147 33.3968 38.3921 37.1073C38.0695 40.8179 37.9102 44.4697 37.9158 48.0639C38.0728 56.2577 37.6269 62.2332 36.5794 65.9892C35.5318 69.7452 33.4112 72.1897 30.2169 73.3225C28.7138 73.8557 27.2683 74.1038 25.8807 74.0674C24.4927 74.031 23.136 73.5602 21.8104 72.6554C20.4844 71.7507 19.2051 70.3794 17.9718 68.5435C16.7389 66.7065 15.5727 64.2387 14.4732 61.139C12.2741 54.9384 11.0503 49.4751 10.8021 44.7513C10.5544 40.0274 10.7125 35.9255 11.2768 32.4467C7.96214 29.3813 4.18195 29.5254 0 32.4456C1.9249 27.7561 4.56786 23.2684 7.94872 19.1432C26.2558 -3.19117 59.2021 -6.45605 81.5375 11.8507ZM98.3299 67.824C96.3887 74.0752 93.2357 80.0647 88.83 85.4395C72.3393 105.558 43.9707 110.2 22.1785 97.543C27.1413 98.5641 32.4563 98.07 38.1227 96.0597C42.821 94.3937 46.597 92.367 49.4506 89.9796C52.3064 87.5917 54.5137 84.7202 56.0724 81.3644C57.6334 78.0086 58.6622 74.1267 59.1611 69.7186C59.6599 65.3118 59.9493 60.2377 60.0291 54.4983C60.008 51.7567 60.038 49.2335 60.1211 46.9308C60.2032 44.6271 60.4615 42.5263 60.8994 40.6261C61.3351 38.7259 62.0147 37.1373 62.9359 35.8579C63.8572 34.5797 65.2108 33.6229 66.9946 32.9899C70.0023 31.9245 72.6408 32.2837 74.9135 34.0686C77.1862 35.8535 79.2549 39.3767 81.1218 44.6382C82.7869 49.3355 83.6716 53.5427 83.7747 57.261C83.8767 60.9793 83.7071 64.4504 83.2636 67.6743C87.8478 72.6742 92.9963 71.2917 98.3299 67.824Z" fill="black"/>
<path d="M11.2768 32.4465C30.2005 1.23988 60.7298 -4.71454 85.6527 15.6254C85.6849 15.6509 85.7159 15.6775 85.7481 15.703C84.4288 14.3593 83.0264 13.0722 81.5375 11.8505C59.2021 -6.45618 26.2558 -3.19129 7.94872 19.143C4.56786 23.2682 1.9249 27.7559 0 32.4454C3.95856 29.6916 7.7495 29.2637 11.2768 32.4465Z" fill="url(#paint0_linear_7_284)"/>
<path d="M83.2637 67.6743C76.3824 95.7743 54.517 103.086 23.5608 97.7868C23.0971 97.7184 22.6362 97.6369 22.1785 97.543C43.9707 110.2 72.3393 105.558 88.83 85.4395C93.2357 80.0647 96.3887 74.0752 98.3299 67.824C92.4519 70.9436 87.3179 71.3084 83.2637 67.6743Z" fill="url(#paint1_linear_7_284)"/>
<path d="M61.4593 38.708C88.8811 60.8494 67.9491 99.2299 29.1161 97.9992C27.2188 98.1239 25.3671 98.0529 23.5608 97.7866C54.517 103.086 76.3824 95.7741 83.2637 67.6741C83.706 64.4502 83.8767 60.9791 83.7736 57.2608C83.6716 53.5425 82.6739 49.373 81.1218 44.638C79.1939 38.7557 77.256 36.1559 74.9135 34.0684C72.2251 31.6727 64.5069 30.482 61.4593 38.708Z" fill="url(#paint2_linear_7_284)"/>
<path d="M35.1677 69.3184C11.1044 31.1695 36.9769 -7.14343 75.9467 10.3629C78.1108 11.0302 80.1861 11.9659 82.175 13.1688C83.3723 13.8938 84.5319 14.7131 85.6527 15.6255C60.7298 -4.71444 30.2005 1.23998 11.2768 32.4466C10.7125 35.9255 10.5544 40.0274 10.8021 44.7513C11.0503 49.4751 12.2741 54.9384 14.4732 61.1389C15.5727 64.2387 16.848 66.6377 17.9718 68.5434C18.935 70.1764 20.2099 71.55 21.8104 72.6553C22.9181 73.504 24.2537 74.0072 25.8807 74.0674C28.4739 74.0492 32.7589 73.5849 35.1677 69.3184Z" fill="url(#paint3_linear_7_284)"/>
<path d="M148.279 94.2329C143.014 94.2329 138.21 93.2803 133.868 91.3751C129.564 89.4699 125.836 86.7455 122.685 83.2019C119.573 79.6202 117.19 75.3335 115.538 70.3419L131.793 64.2835C133.599 68.0557 135.981 71.1612 138.94 73.5998C141.899 76.0003 145.166 77.2006 148.74 77.2006C152.314 77.2006 155.176 76.5528 157.328 75.2573C159.519 73.9237 160.614 71.9804 160.614 69.4275C160.614 67.7509 159.98 66.3601 158.712 65.2551C157.482 64.1501 155.734 63.1785 153.466 62.3402C151.238 61.4638 148.624 60.5493 145.627 59.5967C142.591 58.606 139.498 57.5201 136.347 56.3389C133.195 55.1577 130.294 53.6716 127.643 51.8808C125.029 50.0518 122.916 47.7275 121.302 44.9078C119.688 42.0881 118.881 38.5636 118.881 34.3341C118.881 30.1808 119.995 26.3704 122.224 22.903C124.453 19.4356 127.681 16.6731 131.908 14.6155C136.174 12.5198 141.323 11.4719 147.356 11.4719C152.352 11.4719 156.79 12.3864 160.672 14.2154C164.553 16.0062 167.762 18.4449 170.298 21.5313C172.873 24.6177 174.679 28.0851 175.716 31.9335L159.576 37.1918C158.424 34.7151 156.848 32.6575 154.85 31.0191C152.89 29.3425 150.085 28.5042 146.434 28.5042C143.398 28.5042 141.054 29.0377 139.402 30.1046C137.788 31.1334 136.981 32.6575 136.981 34.677C136.981 35.8963 137.538 36.9632 138.652 37.8777C139.767 38.7541 141.323 39.5733 143.321 40.3354C145.32 41.0975 147.664 41.9167 150.354 42.7931C153.774 43.8981 157.156 45.1174 160.499 46.451C163.88 47.7846 166.936 49.4231 169.664 51.3664C172.431 53.3097 174.621 55.7483 176.235 58.6823C177.888 61.6162 178.714 65.2361 178.714 69.5418C178.714 74.762 177.35 79.2201 174.621 82.9161C171.931 86.5741 168.281 89.3747 163.669 91.318C159.096 93.2613 153.966 94.2329 148.279 94.2329Z" fill="black"/>
<path d="M182.178 92.8612V12.8436H198.664L227.831 53.424C228.176 53.9193 228.734 54.8147 229.502 56.1103C230.271 57.4058 230.828 58.4917 231.174 59.3681C231.059 58.606 230.963 57.5582 230.886 56.2246C230.847 54.8528 230.828 53.8812 230.828 53.3097V12.8436H248.928V92.8612H233.134L203.275 51.9379C202.891 51.4045 202.314 50.4709 201.546 49.1373C200.816 47.8037 200.239 46.6796 199.816 45.7651C200.009 46.7939 200.105 47.8989 200.105 49.0802C200.143 50.2233 200.162 51.1758 200.162 51.9379V92.8612H182.178Z" fill="black"/>
<path d="M288.771 94.2329C282.546 94.2329 277.166 93.0898 272.631 90.8036C268.135 88.4793 264.446 85.3548 261.564 81.4301C258.682 77.4673 256.53 73.0283 255.108 68.1129C253.725 63.1594 253.033 58.0726 253.033 52.8524C253.033 48.0133 253.744 43.1741 255.166 38.3349C256.588 33.4577 258.759 28.9996 261.679 24.9606C264.6 20.8835 268.308 17.6256 272.804 15.187C277.301 12.7103 282.623 11.4719 288.771 11.4719C294.036 11.4719 298.532 12.3674 302.26 14.1582C305.987 15.9491 309.158 18.2734 311.771 21.1312C314.422 23.9508 316.747 26.942 318.745 30.1046L302.836 39.0208C301.107 36.2774 299.089 33.8768 296.784 31.8192C294.516 29.7616 291.846 28.7328 288.771 28.7328C285.543 28.7328 282.834 29.4949 280.644 31.0191C278.492 32.5051 276.782 34.4484 275.514 36.8489C274.245 39.2494 273.323 41.8595 272.747 44.6792C272.209 47.4989 271.94 50.2233 271.94 52.8524C271.94 55.8626 272.247 58.8156 272.862 61.7115C273.477 64.5693 274.438 67.1603 275.744 69.4846C277.089 71.7708 278.838 73.5998 280.99 74.9715C283.142 76.3052 285.736 76.972 288.771 76.972C290.808 76.972 292.71 76.5147 294.478 75.6002C296.284 74.6477 297.744 73.4283 298.859 71.9423C299.973 70.4182 300.53 68.7797 300.53 67.0269V66.684H287.503V49.4231H319.207V62.2259C319.207 69.1226 317.862 74.9525 315.172 79.7154C312.482 84.4784 308.831 88.0982 304.22 90.575C299.647 93.0136 294.497 94.2329 288.771 94.2329Z" fill="black"/>
<path d="M324.136 92.8612V12.8436H364.14C371.019 12.8436 376.475 14.0439 380.51 16.4444C384.545 18.8069 387.427 21.9695 389.157 25.9322C390.924 29.895 391.808 34.2198 391.808 38.9065C391.808 41.8405 391.251 44.8697 390.137 47.9942C389.022 51.0806 387.389 53.9193 385.237 56.5103C383.124 59.0633 380.549 61.0066 377.513 62.3402L392.5 92.8612H372.095L357.684 65.198H342.351V92.8612H324.136ZM342.351 48.1657H364.37C366.522 48.1657 368.213 47.7465 369.443 46.9082C370.711 46.0319 371.595 44.8888 372.095 43.4789C372.633 42.0691 372.902 40.545 372.902 38.9065C372.902 37.3824 372.652 35.9344 372.152 34.5627C371.653 33.191 370.769 32.0669 369.501 31.1905C368.271 30.3141 366.561 29.876 364.37 29.876H342.351V48.1657Z" fill="black"/>
<path d="M291.319 128.34C290.506 128.34 289.817 128.058 289.254 127.494C288.703 126.931 288.428 126.262 288.428 125.489C288.428 124.728 288.703 124.06 289.254 123.483C289.817 122.906 290.506 122.617 291.319 122.617C292.144 122.617 292.839 122.906 293.403 123.483C293.967 124.06 294.249 124.728 294.249 125.489C294.249 126.262 293.967 126.931 293.403 127.494C292.839 128.058 292.144 128.34 291.319 128.34Z" fill="black"/>
<path d="M303.273 128.301C301.805 128.301 300.395 127.986 299.045 127.357C297.708 126.728 296.62 125.882 295.781 124.82L298.494 122.519C299.189 123.266 299.969 123.85 300.835 124.269C301.7 124.676 302.546 124.879 303.372 124.879C304.499 124.879 305.371 124.676 305.987 124.269C306.603 123.85 306.911 123.273 306.911 122.539C306.911 122.067 306.767 121.641 306.479 121.26C306.203 120.867 305.732 120.493 305.063 120.139C304.394 119.772 303.49 119.379 302.349 118.959C300.12 118.133 298.527 117.242 297.57 116.285C296.613 115.315 296.135 114.102 296.135 112.647C296.135 111.047 296.777 109.749 298.062 108.753C299.347 107.756 301.012 107.258 303.057 107.258C304.473 107.258 305.771 107.527 306.951 108.065C308.131 108.589 309.147 109.356 309.999 110.365L307.344 112.548C306.151 111.303 304.709 110.68 303.018 110.68C302.061 110.68 301.3 110.864 300.736 111.231C300.173 111.585 299.891 112.076 299.891 112.706C299.891 113.322 300.212 113.859 300.854 114.318C301.497 114.777 302.67 115.315 304.375 115.931C305.843 116.442 307.036 117.006 307.954 117.622C308.885 118.238 309.56 118.946 309.979 119.746C310.412 120.533 310.628 121.444 310.628 122.48C310.628 124.289 309.973 125.711 308.662 126.747C307.364 127.783 305.568 128.301 303.273 128.301Z" fill="black"/>
<path d="M319.118 128.301C317.676 128.301 316.574 127.881 315.814 127.042C315.067 126.19 314.693 124.958 314.693 123.345V111.152H311.546V107.73H314.693V101.319L318.607 99.4312V107.73H323.425V111.152H318.607V122.303C318.607 123.142 318.757 123.758 319.059 124.151C319.374 124.545 319.859 124.741 320.514 124.741C321.458 124.741 322.481 124.407 323.582 123.738L323.13 127.396C322.527 127.711 321.897 127.94 321.242 128.084C320.586 128.229 319.878 128.301 319.118 128.301Z" fill="black"/>
<path d="M333.066 128.301C330.666 128.301 328.864 127.58 327.658 126.138C326.451 124.695 325.848 122.532 325.848 119.648V107.73H329.762V119.471C329.762 121.175 330.103 122.46 330.784 123.325C331.479 124.177 332.502 124.604 333.852 124.604C335.321 124.604 336.415 124.184 337.137 123.345C337.871 122.493 338.238 121.228 338.238 119.549V107.73H342.151V127.829H338.238V125.921C337.609 126.734 336.874 127.337 336.035 127.73C335.196 128.111 334.206 128.301 333.066 128.301Z" fill="black"/>
<path d="M353.457 128.301C350.9 128.301 348.881 127.363 347.399 125.489C345.918 123.601 345.177 121.024 345.177 117.76C345.177 115.623 345.518 113.768 346.2 112.194C346.882 110.621 347.839 109.408 349.071 108.556C350.317 107.691 351.785 107.258 353.476 107.258C355.39 107.258 357.01 107.894 358.334 109.166V101.24L362.247 99.4312V127.829H358.334V126.236C357.128 127.612 355.502 128.301 353.457 128.301ZM354.047 124.604C354.951 124.604 355.771 124.4 356.505 123.994C357.239 123.574 357.849 122.978 358.334 122.204V113.217C357.849 112.509 357.226 111.952 356.465 111.545C355.718 111.126 354.912 110.916 354.047 110.916C352.473 110.916 351.26 111.506 350.408 112.686C349.556 113.866 349.13 115.557 349.13 117.76C349.13 119.136 349.333 120.343 349.74 121.378C350.146 122.401 350.716 123.194 351.451 123.758C352.185 124.322 353.05 124.604 354.047 124.604Z" fill="black"/>
<path d="M366.707 127.829V107.73H370.62V127.829H366.707ZM368.654 104.446C367.998 104.446 367.434 104.217 366.962 103.758C366.504 103.286 366.274 102.722 366.274 102.066C366.274 101.398 366.504 100.827 366.962 100.355C367.421 99.8835 367.985 99.6475 368.654 99.6475C369.335 99.6475 369.906 99.8835 370.365 100.355C370.824 100.827 371.053 101.398 371.053 102.066C371.053 102.735 370.824 103.299 370.365 103.758C369.906 104.217 369.335 104.446 368.654 104.446Z" fill="black"/>
<path d="M382.899 128.301C380.119 128.301 377.93 127.363 376.33 125.489C374.731 123.601 373.931 121.038 373.931 117.799C373.931 115.636 374.291 113.768 375.013 112.194C375.747 110.621 376.783 109.408 378.12 108.556C379.47 107.691 381.063 107.258 382.899 107.258C384.747 107.258 386.34 107.684 387.677 108.536C389.028 109.376 390.064 110.582 390.785 112.155C391.506 113.728 391.866 115.597 391.866 117.76C391.866 119.936 391.499 121.811 390.765 123.384C390.044 124.958 389.015 126.17 387.677 127.023C386.34 127.875 384.747 128.301 382.899 128.301ZM382.899 124.604C384.472 124.604 385.698 124.001 386.576 122.794C387.468 121.588 387.913 119.91 387.913 117.76C387.913 115.61 387.468 113.932 386.576 112.725C385.698 111.519 384.472 110.916 382.899 110.916C381.325 110.916 380.093 111.519 379.201 112.725C378.323 113.932 377.884 115.623 377.884 117.799C377.884 119.936 378.323 121.608 379.201 122.814C380.093 124.007 381.325 124.604 382.899 124.604Z" fill="black"/>
<defs>
<linearGradient id="paint0_linear_7_284" x1="7.28632" y1="30.3169" x2="60.8329" y2="-1.84543" gradientUnits="userSpaceOnUse">
<stop/>
<stop offset="1" stop-color="#9A9A9A"/>
</linearGradient>
<linearGradient id="paint1_linear_7_284" x1="98.3265" y1="67.8229" x2="18.428" y2="133.682" gradientUnits="userSpaceOnUse">
<stop/>
<stop offset="1" stop-color="#9A9A9A"/>
</linearGradient>
<linearGradient id="paint2_linear_7_284" x1="86.0762" y1="103.463" x2="48.3387" y2="32.2536" gradientUnits="userSpaceOnUse">
<stop/>
<stop offset="1" stop-color="#9A9A9A"/>
</linearGradient>
<linearGradient id="paint3_linear_7_284" x1="12.3971" y1="-5.86741" x2="56.6423" y2="48.5638" gradientUnits="userSpaceOnUse">
<stop/>
<stop offset="1" stop-color="#818181"/>
</linearGradient>
</defs>
</svg>
