<svg width="964" height="224" viewBox="0 0 964 224" fill="none" xmlns="http://www.w3.org/2000/svg">
<rect x="16.6418" y="16" width="192" height="192" fill="url(#paint0_linear_12_600)"/>
<path fill-rule="evenodd" clip-rule="evenodd" d="M62.8929 96.1404C72.9051 53.9767 105.886 42.9323 152.083 50.8403C152.775 50.9428 153.462 51.064 154.145 51.2048C121.625 32.3151 79.2885 39.2424 54.6791 69.2669C48.1036 77.2873 43.399 86.2269 40.5014 95.5559C49.2742 90.8998 56.8426 90.7181 62.8929 96.1404ZM96.7175 140.351C85.2087 134.035 69.7701 109.754 84.5069 82.6667C99.5416 55.0315 133.63 50.9474 144.717 51.9299C135.314 51.9299 107.278 61.5429 100.928 86.4562C98.209 97.1228 98.8227 114.105 99.8052 123.509C100.362 128.842 99.2438 137.123 96.7175 140.351ZM129.484 82.2456C171.308 113.544 139.028 176 80.8653 172.354C78.0342 172.54 75.2703 172.435 72.5748 172.037C118.771 179.945 151.403 169.034 161.671 127.1C162.333 122.288 162.587 117.107 162.434 111.558C162.281 106.009 160.961 99.7293 158.474 92.7205C155.689 84.8691 152.293 79.4316 149.21 76.948C145.208 73.724 134.68 71.4759 129.484 82.2456ZM128.782 83.3684C140.291 89.6842 155.73 113.965 140.993 141.053C125.958 168.688 91.8699 172.772 80.7821 171.789C90.1857 171.789 118.221 162.176 124.572 137.263C127.291 126.596 126.677 109.614 125.694 100.211C125.137 94.8772 126.256 86.5965 128.782 83.3684ZM73.417 172.879C119.613 180.787 152.595 169.743 162.607 127.579C168.657 133.001 176.225 132.82 184.998 128.163C182.101 137.492 177.396 146.432 170.821 154.452C146.211 184.477 103.875 191.404 71.3544 172.515C72.0378 172.655 72.725 172.777 73.417 172.879ZM144.634 51.3651C86.4719 47.7193 54.1911 110.175 96.0157 141.474C90.8196 152.243 80.2912 149.995 76.2892 146.771C73.2062 144.288 69.8102 138.85 67.0254 130.999C64.5388 123.99 63.2184 117.71 63.0655 112.161C62.9127 106.612 63.1664 101.432 63.8281 96.6197C74.0964 54.6854 106.728 43.7742 152.925 51.6822C150.229 51.2846 147.465 51.1791 144.634 51.3651Z" fill="white"/>
<path d="M266.818 135.168C263.895 135.168 261.228 134.635 258.818 133.568C256.428 132.501 254.359 130.976 252.61 128.992C250.882 126.987 249.559 124.587 248.642 121.792L257.666 118.4C258.668 120.512 259.991 122.251 261.634 123.616C263.276 124.96 265.09 125.632 267.074 125.632C269.058 125.632 270.647 125.269 271.842 124.544C273.058 123.797 273.666 122.709 273.666 121.28C273.666 120.341 273.314 119.563 272.61 118.944C271.927 118.325 270.956 117.781 269.698 117.312C268.46 116.821 267.01 116.309 265.346 115.776C263.66 115.221 261.943 114.613 260.194 113.952C258.444 113.291 256.834 112.459 255.362 111.456C253.911 110.432 252.738 109.131 251.842 107.552C250.946 105.973 250.498 104 250.498 101.632C250.498 99.3067 251.116 97.1733 252.354 95.232C253.591 93.2907 255.383 91.744 257.73 90.592C260.098 89.4187 262.956 88.832 266.306 88.832C269.079 88.832 271.543 89.344 273.698 90.368C275.852 91.3707 277.634 92.736 279.042 94.464C280.471 96.192 281.474 98.1333 282.05 100.288L273.09 103.232C272.45 101.845 271.575 100.693 270.466 99.776C269.378 98.8373 267.82 98.368 265.794 98.368C264.108 98.368 262.807 98.6667 261.89 99.264C260.994 99.84 260.546 100.693 260.546 101.824C260.546 102.507 260.855 103.104 261.474 103.616C262.092 104.107 262.956 104.565 264.066 104.992C265.175 105.419 266.476 105.877 267.97 106.368C269.868 106.987 271.746 107.669 273.602 108.416C275.479 109.163 277.175 110.08 278.69 111.168C280.226 112.256 281.442 113.621 282.338 115.264C283.255 116.907 283.714 118.933 283.714 121.344C283.714 124.267 282.956 126.763 281.442 128.832C279.948 130.88 277.922 132.448 275.362 133.536C272.823 134.624 269.975 135.168 266.818 135.168Z" fill="#025591"/>
<path d="M285.991 134.4L303.847 89.6H313.511L331.431 134.4H320.359L317.031 125.888H300.327L297.063 134.4H285.991ZM303.719 116.544H313.575L309.927 107.584C309.799 107.285 309.65 106.955 309.479 106.592C309.33 106.208 309.181 105.824 309.031 105.44C308.882 105.035 308.754 104.661 308.647 104.32C308.541 104.661 308.413 105.035 308.263 105.44C308.114 105.824 307.954 106.208 307.783 106.592C307.634 106.955 307.495 107.285 307.367 107.584L303.719 116.544Z" fill="#025591"/>
<path d="M350.943 135.168C348.02 135.168 345.353 134.635 342.943 133.568C340.553 132.501 338.484 130.976 336.735 128.992C335.007 126.987 333.684 124.587 332.767 121.792L341.791 118.4C342.793 120.512 344.116 122.251 345.759 123.616C347.401 124.96 349.215 125.632 351.199 125.632C353.183 125.632 354.772 125.269 355.967 124.544C357.183 123.797 357.791 122.709 357.791 121.28C357.791 120.341 357.439 119.563 356.735 118.944C356.052 118.325 355.081 117.781 353.823 117.312C352.585 116.821 351.135 116.309 349.471 115.776C347.785 115.221 346.068 114.613 344.319 113.952C342.569 113.291 340.959 112.459 339.487 111.456C338.036 110.432 336.863 109.131 335.967 107.552C335.071 105.973 334.623 104 334.623 101.632C334.623 99.3067 335.241 97.1733 336.479 95.232C337.716 93.2907 339.508 91.744 341.855 90.592C344.223 89.4187 347.081 88.832 350.431 88.832C353.204 88.832 355.668 89.344 357.823 90.368C359.977 91.3707 361.759 92.736 363.167 94.464C364.596 96.192 365.599 98.1333 366.175 100.288L357.215 103.232C356.575 101.845 355.7 100.693 354.591 99.776C353.503 98.8373 351.945 98.368 349.919 98.368C348.233 98.368 346.932 98.6667 346.015 99.264C345.119 99.84 344.671 100.693 344.671 101.824C344.671 102.507 344.98 103.104 345.599 103.616C346.217 104.107 347.081 104.565 348.191 104.992C349.3 105.419 350.601 105.877 352.095 106.368C353.993 106.987 355.871 107.669 357.727 108.416C359.604 109.163 361.3 110.08 362.815 111.168C364.351 112.256 365.567 113.621 366.463 115.264C367.38 116.907 367.839 118.933 367.839 121.344C367.839 124.267 367.081 126.763 365.567 128.832C364.073 130.88 362.047 132.448 359.487 133.536C356.948 134.624 354.1 135.168 350.943 135.168Z" fill="#025591"/>
<path d="M383.872 134.4V99.328H371.008V89.6H406.912V99.328H393.984V134.4H383.872Z" fill="#025591"/>
<path d="M413.264 134.4V89.6H435.472C439.291 89.6 442.32 90.272 444.56 91.616C446.8 92.9387 448.4 94.7093 449.36 96.928C450.342 99.1467 450.832 101.568 450.832 104.192C450.832 105.835 450.523 107.531 449.904 109.28C449.286 111.008 448.379 112.597 447.184 114.048C446.011 115.477 444.582 116.565 442.896 117.312L451.216 134.4H439.888L431.888 118.912H423.376V134.4H413.264ZM423.376 109.376H435.6C436.795 109.376 437.734 109.141 438.416 108.672C439.12 108.181 439.611 107.541 439.888 106.752C440.187 105.963 440.336 105.109 440.336 104.192C440.336 103.339 440.198 102.528 439.92 101.76C439.643 100.992 439.152 100.363 438.448 99.872C437.766 99.3813 436.816 99.136 435.6 99.136H423.376V109.376Z" fill="#025591"/>
<path d="M476.756 135.168C473.15 135.168 470.078 134.496 467.54 133.152C465.001 131.787 462.942 129.984 461.364 127.744C459.806 125.483 458.665 122.987 457.94 120.256C457.214 117.525 456.852 114.773 456.852 112C456.852 109.227 457.214 106.475 457.94 103.744C458.665 101.013 459.806 98.528 461.364 96.288C462.942 94.0267 465.001 92.224 467.54 90.88C470.078 89.5147 473.15 88.832 476.756 88.832C480.382 88.832 483.454 89.5147 485.972 90.88C488.489 92.224 490.526 94.0267 492.084 96.288C493.662 98.528 494.804 101.013 495.508 103.744C496.233 106.475 496.596 109.227 496.596 112C496.596 114.773 496.233 117.525 495.508 120.256C494.804 122.987 493.662 125.483 492.084 127.744C490.526 129.984 488.489 131.787 485.972 133.152C483.454 134.496 480.382 135.168 476.756 135.168ZM476.756 125.376C478.462 125.376 479.913 124.96 481.108 124.128C482.302 123.296 483.262 122.208 483.988 120.864C484.734 119.52 485.268 118.069 485.588 116.512C485.929 114.955 486.1 113.451 486.1 112C486.1 110.464 485.94 108.907 485.62 107.328C485.321 105.749 484.809 104.299 484.084 102.976C483.38 101.653 482.42 100.587 481.204 99.776C480.009 98.9653 478.526 98.56 476.756 98.56C474.964 98.56 473.46 98.9867 472.244 99.84C471.049 100.672 470.089 101.76 469.364 103.104C468.638 104.448 468.116 105.909 467.796 107.488C467.497 109.045 467.348 110.549 467.348 112C467.348 113.493 467.508 115.029 467.828 116.608C468.148 118.165 468.67 119.616 469.396 120.96C470.142 122.283 471.113 123.349 472.308 124.16C473.524 124.971 475.006 125.376 476.756 125.376Z" fill="#025591"/>
<path d="M504.139 134.4V89.6H513.291L529.483 112.32C529.675 112.597 529.985 113.099 530.411 113.824C530.838 114.549 531.147 115.157 531.339 115.648C531.275 115.221 531.222 114.635 531.179 113.888C531.158 113.12 531.147 112.576 531.147 112.256V89.6H541.195V134.4H532.427L515.851 111.488C515.638 111.189 515.318 110.667 514.891 109.92C514.486 109.173 514.166 108.544 513.931 108.032C514.038 108.608 514.091 109.227 514.091 109.888C514.113 110.528 514.123 111.061 514.123 111.488V134.4H504.139Z" fill="#025591"/>
<path d="M550.452 134.4V89.6H583.156V99.2H560.564V106.496H572.98V116.096H560.564V124.736H584.436V134.4H550.452Z" fill="#025591"/>
<path d="M608.817 135.168C605.361 135.168 602.374 134.528 599.857 133.248C597.361 131.947 595.313 130.197 593.713 128C592.113 125.781 590.918 123.296 590.129 120.544C589.361 117.771 588.977 114.923 588.977 112C588.977 109.291 589.371 106.581 590.161 103.872C590.95 101.141 592.155 98.6453 593.777 96.384C595.398 94.1013 597.457 92.2773 599.953 90.912C602.449 89.5253 605.403 88.832 608.817 88.832C611.739 88.832 614.235 89.3333 616.305 90.336C618.374 91.3387 620.134 92.64 621.585 94.24C623.057 95.8187 624.347 97.4933 625.457 99.264L616.625 104.256C615.665 102.72 614.545 101.376 613.265 100.224C612.006 99.072 610.523 98.496 608.817 98.496C607.025 98.496 605.521 98.9227 604.305 99.776C603.11 100.608 602.161 101.696 601.457 103.04C600.753 104.384 600.241 105.845 599.921 107.424C599.622 109.003 599.473 110.528 599.473 112C599.473 113.685 599.643 115.339 599.985 116.96C600.326 118.56 600.859 120.011 601.585 121.312C602.331 122.592 603.302 123.616 604.497 124.384C605.691 125.131 607.131 125.504 608.817 125.504C609.947 125.504 611.003 125.248 611.985 124.736C612.987 124.203 613.798 123.52 614.417 122.688C615.035 121.835 615.345 120.917 615.345 119.936V119.744H608.113V110.08H625.713V117.248C625.713 121.109 624.966 124.373 623.473 127.04C621.979 129.707 619.953 131.733 617.393 133.12C614.854 134.485 611.995 135.168 608.817 135.168Z" fill="#025591"/>
<path d="M652.193 135.168C648.588 135.168 645.516 134.496 642.977 133.152C640.439 131.787 638.38 129.984 636.801 127.744C635.244 125.483 634.103 122.987 633.377 120.256C632.652 117.525 632.289 114.773 632.289 112C632.289 109.227 632.652 106.475 633.377 103.744C634.103 101.013 635.244 98.528 636.801 96.288C638.38 94.0267 640.439 92.224 642.977 90.88C645.516 89.5147 648.588 88.832 652.193 88.832C655.82 88.832 658.892 89.5147 661.409 90.88C663.927 92.224 665.964 94.0267 667.521 96.288C669.1 98.528 670.241 101.013 670.945 103.744C671.671 106.475 672.033 109.227 672.033 112C672.033 114.773 671.671 117.525 670.945 120.256C670.241 122.987 669.1 125.483 667.521 127.744C665.964 129.984 663.927 131.787 661.409 133.152C658.892 134.496 655.82 135.168 652.193 135.168ZM652.193 125.376C653.9 125.376 655.351 124.96 656.545 124.128C657.74 123.296 658.7 122.208 659.425 120.864C660.172 119.52 660.705 118.069 661.025 116.512C661.367 114.955 661.537 113.451 661.537 112C661.537 110.464 661.377 108.907 661.057 107.328C660.759 105.749 660.247 104.299 659.521 102.976C658.817 101.653 657.857 100.587 656.641 99.776C655.447 98.9653 653.964 98.56 652.193 98.56C650.401 98.56 648.897 98.9867 647.681 99.84C646.487 100.672 645.527 101.76 644.801 103.104C644.076 104.448 643.553 105.909 643.233 107.488C642.935 109.045 642.785 110.549 642.785 112C642.785 113.493 642.945 115.029 643.265 116.608C643.585 118.165 644.108 119.616 644.833 120.96C645.58 122.283 646.551 123.349 647.745 124.16C648.961 124.971 650.444 125.376 652.193 125.376Z" fill="#025591"/>
<path d="M679.577 134.4V89.6H701.785C705.603 89.6 708.633 90.272 710.873 91.616C713.113 92.9387 714.713 94.7093 715.673 96.928C716.654 99.1467 717.145 101.568 717.145 104.192C717.145 105.835 716.835 107.531 716.217 109.28C715.598 111.008 714.691 112.597 713.497 114.048C712.323 115.477 710.894 116.565 709.209 117.312L717.529 134.4H706.201L698.201 118.912H689.689V134.4H679.577ZM689.689 109.376H701.913C703.107 109.376 704.046 109.141 704.729 108.672C705.433 108.181 705.923 107.541 706.201 106.752C706.499 105.963 706.649 105.109 706.649 104.192C706.649 103.339 706.51 102.528 706.233 101.76C705.955 100.992 705.465 100.363 704.761 99.872C704.078 99.3813 703.129 99.136 701.913 99.136H689.689V109.376Z" fill="#025591"/>
<path d="M743.068 135.168C739.463 135.168 736.391 134.496 733.852 133.152C731.314 131.787 729.255 129.984 727.676 127.744C726.119 125.483 724.978 122.987 724.252 120.256C723.527 117.525 723.164 114.773 723.164 112C723.164 109.227 723.527 106.475 724.252 103.744C724.978 101.013 726.119 98.528 727.676 96.288C729.255 94.0267 731.314 92.224 733.852 90.88C736.391 89.5147 739.463 88.832 743.068 88.832C746.695 88.832 749.767 89.5147 752.284 90.88C754.802 92.224 756.839 94.0267 758.396 96.288C759.975 98.528 761.116 101.013 761.82 103.744C762.546 106.475 762.908 109.227 762.908 112C762.908 114.773 762.546 117.525 761.82 120.256C761.116 122.987 759.975 125.483 758.396 127.744C756.839 129.984 754.802 131.787 752.284 133.152C749.767 134.496 746.695 135.168 743.068 135.168ZM743.068 125.376C744.775 125.376 746.226 124.96 747.42 124.128C748.615 123.296 749.575 122.208 750.3 120.864C751.047 119.52 751.58 118.069 751.9 116.512C752.242 114.955 752.412 113.451 752.412 112C752.412 110.464 752.252 108.907 751.932 107.328C751.634 105.749 751.122 104.299 750.396 102.976C749.692 101.653 748.732 100.587 747.516 99.776C746.322 98.9653 744.839 98.56 743.068 98.56C741.276 98.56 739.772 98.9867 738.556 99.84C737.362 100.672 736.402 101.76 735.676 103.104C734.951 104.448 734.428 105.909 734.108 107.488C733.81 109.045 733.66 110.549 733.66 112C733.66 113.493 733.82 115.029 734.14 116.608C734.46 118.165 734.983 119.616 735.708 120.96C736.455 122.283 737.426 123.349 738.62 124.16C739.836 124.971 741.319 125.376 743.068 125.376Z" fill="#025591"/>
<path d="M800.32 135.168C797.462 135.168 794.987 134.635 792.896 133.568C790.827 132.48 789.227 130.955 788.096 128.992C786.987 127.008 786.432 124.672 786.432 121.984C786.432 119.936 786.838 118.123 787.648 116.544C788.459 114.965 789.558 113.589 790.944 112.416C792.352 111.243 793.92 110.229 795.648 109.376C794.048 107.648 792.982 106.005 792.448 104.448C791.936 102.869 791.68 101.248 791.68 99.584C791.68 97.3013 792.192 95.36 793.216 93.76C794.24 92.16 795.616 90.944 797.344 90.112C799.072 89.2587 800.982 88.832 803.072 88.832C805.419 88.832 807.467 89.248 809.216 90.08C810.987 90.8907 812.352 92.0747 813.312 93.632C814.294 95.1893 814.784 97.0667 814.784 99.264C814.784 102.016 814.134 104.288 812.832 106.08C811.552 107.851 809.984 109.376 808.128 110.656L811.456 114.624C811.456 114.197 811.456 113.717 811.456 113.184C811.456 112.651 811.456 112.085 811.456 111.488H820.928C820.928 113.664 820.672 115.819 820.16 117.952C819.648 120.085 819.008 121.664 818.24 122.688L827.648 134.4H815.68L812.544 130.432C810.987 132.053 809.206 133.248 807.2 134.016C805.216 134.784 802.923 135.168 800.32 135.168ZM801.216 125.888C802.347 125.888 803.403 125.728 804.384 125.408C805.366 125.088 806.336 124.608 807.296 123.968L800.576 115.712C798.827 116.608 797.654 117.557 797.056 118.56C796.459 119.563 796.16 120.64 796.16 121.792C796.16 122.965 796.598 123.947 797.472 124.736C798.347 125.504 799.595 125.888 801.216 125.888ZM803.2 104.704C804.075 104.192 804.736 103.477 805.184 102.56C805.654 101.643 805.888 100.565 805.888 99.328C805.888 98.0053 805.611 97.056 805.056 96.48C804.502 95.904 803.883 95.616 803.2 95.616C802.539 95.616 801.931 95.904 801.376 96.48C800.843 97.0347 800.576 97.792 800.576 98.752C800.576 99.7333 800.768 100.704 801.152 101.664C801.536 102.624 802.219 103.637 803.2 104.704Z" fill="#025591"/>
<path d="M868.171 135.04C864.629 135.04 861.643 134.368 859.211 133.024C856.8 131.68 854.859 129.899 853.387 127.68C851.915 125.44 850.848 122.965 850.187 120.256C849.547 117.525 849.227 114.773 849.227 112C849.227 109.461 849.557 106.837 850.219 104.128C850.88 101.419 851.947 98.912 853.419 96.608C854.912 94.2827 856.864 92.4053 859.275 90.976C861.707 89.5467 864.672 88.832 868.171 88.832C871.051 88.832 873.589 89.3653 875.787 90.432C878.005 91.4773 879.861 92.8427 881.355 94.528C882.869 96.2133 884 97.984 884.747 99.84L875.723 103.872C874.976 102.741 874.24 101.781 873.515 100.992C872.789 100.203 872 99.6053 871.147 99.2C870.293 98.7733 869.301 98.56 868.171 98.56C866.571 98.56 865.227 98.976 864.139 99.808C863.051 100.619 862.187 101.696 861.547 103.04C860.907 104.384 860.437 105.845 860.139 107.424C859.861 108.981 859.723 110.507 859.723 112C859.723 113.536 859.883 115.093 860.203 116.672C860.523 118.229 861.024 119.659 861.707 120.96C862.389 122.261 863.264 123.317 864.331 124.128C865.397 124.917 866.677 125.312 868.171 125.312C869.707 125.312 871.072 124.779 872.267 123.712C873.461 122.624 874.571 121.237 875.595 119.552L884.811 123.008C883.723 125.355 882.411 127.435 880.875 129.248C879.339 131.061 877.525 132.48 875.435 133.504C873.344 134.528 870.923 135.04 868.171 135.04Z" fill="#025591"/>
<path d="M908.506 135.168C904.9 135.168 901.828 134.496 899.29 133.152C896.751 131.787 894.692 129.984 893.114 127.744C891.556 125.483 890.415 122.987 889.69 120.256C888.964 117.525 888.602 114.773 888.602 112C888.602 109.227 888.964 106.475 889.69 103.744C890.415 101.013 891.556 98.528 893.114 96.288C894.692 94.0267 896.751 92.224 899.29 90.88C901.828 89.5147 904.9 88.832 908.506 88.832C912.132 88.832 915.204 89.5147 917.722 90.88C920.239 92.224 922.276 94.0267 923.834 96.288C925.412 98.528 926.554 101.013 927.258 103.744C927.983 106.475 928.346 109.227 928.346 112C928.346 114.773 927.983 117.525 927.258 120.256C926.554 122.987 925.412 125.483 923.834 127.744C922.276 129.984 920.239 131.787 917.722 133.152C915.204 134.496 912.132 135.168 908.506 135.168ZM908.506 125.376C910.212 125.376 911.663 124.96 912.858 124.128C914.052 123.296 915.012 122.208 915.738 120.864C916.484 119.52 917.018 118.069 917.338 116.512C917.679 114.955 917.85 113.451 917.85 112C917.85 110.464 917.69 108.907 917.37 107.328C917.071 105.749 916.559 104.299 915.834 102.976C915.13 101.653 914.17 100.587 912.954 99.776C911.759 98.9653 910.276 98.56 908.506 98.56C906.714 98.56 905.21 98.9867 903.994 99.84C902.799 100.672 901.839 101.76 901.114 103.104C900.388 104.448 899.866 105.909 899.546 107.488C899.247 109.045 899.098 110.549 899.098 112C899.098 113.493 899.258 115.029 899.578 116.608C899.898 118.165 900.42 119.616 901.146 120.96C901.892 122.283 902.863 123.349 904.058 124.16C905.274 124.971 906.756 125.376 908.506 125.376Z" fill="#025591"/>
<path d="M941.47 135.168C939.806 135.168 938.42 134.635 937.31 133.568C936.201 132.501 935.646 131.136 935.646 129.472C935.646 127.872 936.201 126.517 937.31 125.408C938.42 124.277 939.806 123.712 941.47 123.712C943.134 123.712 944.532 124.277 945.662 125.408C946.793 126.517 947.358 127.872 947.358 129.472C947.358 131.136 946.793 132.501 945.662 133.568C944.532 134.635 943.134 135.168 941.47 135.168Z" fill="#025591"/>
<defs>
<linearGradient id="paint0_linear_12_600" x1="200.08" y1="25.9649" x2="23.2382" y2="201.404" gradientUnits="userSpaceOnUse">
<stop stop-color="#00A6CB"/>
<stop offset="1" stop-color="#025591"/>
</linearGradient>
</defs>
</svg>
